<?xml version="1.0" encoding="utf-8"?>
<!-- Generator: Adobe Illustrator 24.1.1, SVG Export Plug-In . SVG Version: 6.00 Build 0)  -->
<svg version="1.1" id="Capa_1" xmlns="http://www.w3.org/2000/svg" xmlns:xlink="http://www.w3.org/1999/xlink" x="0px" y="0px"
	 viewBox="0 0 226.8 226.3" style="enable-background:new 0 0 226.8 226.3;" xml:space="preserve">
<style type="text/css">
	.st0{fill:#0091B9;}
	.st1{fill:#74CDD6;}
	.st2{fill:#FFFFFF;}
	.st3{opacity:0.51;fill:#4DA3DA;}
	.st4{opacity:0.5;fill:#4DA3DA;}
	.st5{fill:url(#XMLID_20_);}
	.st6{fill:url(#XMLID_21_);}
	.st7{fill:url(#XMLID_22_);}
	.st8{fill:url(#XMLID_23_);}
	.st9{fill:#CFEDFA;}
	.st10{fill:#ABCCEB;}
	.st11{fill:#E0F2F7;}
	.st12{fill:#63C6F1;}
	.st13{fill:#CF7128;}
	.st14{fill:#F0BE5C;}
	.st15{fill:#FFD047;}
	.st16{fill:#969BCD;}
	.st17{fill:#DADAEE;}
	.st18{fill:#9CA0D0;}
	.st19{fill:#C5C5E4;}
	.st20{fill:#E1E4F3;}
	.st21{fill:#F0503F;}
	.st22{fill:#FEE469;}
	.st23{fill:#FFD45E;}
	.st24{fill:#668E3D;}
	.st25{fill:#663F98;}
	.st26{fill:#005075;}
	.st27{fill:#84AEDD;}
</style>
<g>
	<path class="st0" d="M45.2,164.7c34.8,20.9,91.9,21.8,127.6,2c17.7-9.8,26.7-22.8,27.2-36h0l0-0.1c0-1,0-1.9,0-2.9l0.3-7.3
		l-179.9,0l-0.8,7.2h0C19.4,140.9,27.9,154.3,45.2,164.7z"/>
	<path class="st1" d="M45.5,158.8c-34.8-20.9-34-53.9,1.7-73.7c35.7-19.8,92.8-18.9,127.6,2c34.8,20.9,34,53.9-1.7,73.7
		C137.4,180.5,80.3,179.6,45.5,158.8z"/>
</g>
<g>
	<g>
		<path class="st2" d="M51.8,198.4c-0.5,0-0.9,0.2-0.9,0.6c0,1.5,5.6,0.6,5.6,4.4c0,2.2-2,3.3-4.4,3.3c-1.8,0-3.8-0.6-5.2-1.7
			l1.2-2.4c1.1,0.9,2.9,1.6,4,1.6c0.7,0,1.1-0.2,1.1-0.7c0-1.6-5.6-0.6-5.6-4.3c0-2,1.8-3.3,4.4-3.3c1.6,0,3.3,0.5,4.5,1.2l-1.2,2.4
			C54.3,199,52.7,198.4,51.8,198.4z"/>
		<path class="st2" d="M66.3,196.1v2.5h-3.1v8H60v-8h-3.1v-2.5H66.3z"/>
		<path class="st2" d="M73.4,204.9H69l-0.6,1.7h-3.3l4.6-10.5H73l4.4,10.5H74L73.4,204.9z M72.5,202.6l-1.3-3.4l-1.3,3.4H72.5z"/>
		<path class="st2" d="M85.6,196.1v2.5h-3.1v8h-3.2v-8h-3.1v-2.5H85.6z"/>
		<path class="st2" d="M89.8,196.1v10.5h-3.2v-10.5H89.8z"/>
		<path class="st2" d="M95.8,198.4c-0.5,0-0.9,0.2-0.9,0.6c0,1.5,5.6,0.6,5.6,4.4c0,2.2-2,3.3-4.4,3.3c-1.8,0-3.8-0.6-5.2-1.7
			l1.2-2.4c1.1,0.9,2.9,1.6,4,1.6c0.7,0,1.1-0.2,1.1-0.7c0-1.6-5.6-0.6-5.6-4.3c0-2,1.8-3.3,4.4-3.3c1.6,0,3.3,0.5,4.5,1.2l-1.2,2.4
			C98.2,199,96.7,198.4,95.8,198.4z"/>
		<path class="st2" d="M110.3,196.1v2.5h-3.1v8H104v-8h-3.1v-2.5H110.3z"/>
		<path class="st2" d="M114.5,196.1v10.5h-3.2v-10.5H114.5z"/>
		<path class="st2" d="M121.5,198.6c-1.5,0-2.6,1.2-2.6,2.7c0,1.5,1.1,2.7,2.6,2.7c0.8,0,1.8-0.5,2.6-1.2l1.8,1.9
			c-1.2,1.2-2.9,2-4.6,2c-3.3,0-5.7-2.3-5.7-5.4c0-3.1,2.5-5.3,5.8-5.3c1.6,0,3.4,0.7,4.4,1.9l-1.8,2.1
			C123.4,199.2,122.4,198.6,121.5,198.6z"/>
		<path class="st2" d="M141.9,201.3c0,3.2-2.3,5.3-5.9,5.3h-4.6v-10.5h4.7C139.6,196.1,141.9,198.2,141.9,201.3z M138.7,201.4
			c0-1.7-1.1-2.8-2.6-2.8h-1.5v5.6h1.6C137.7,204.2,138.7,203,138.7,201.4z"/>
		<path class="st2" d="M150.1,204.9h-4.3l-0.6,1.7h-3.3l4.6-10.5h3.3l4.4,10.5h-3.4L150.1,204.9z M149.2,202.6l-1.3-3.4l-1.3,3.4
			H149.2z"/>
		<path class="st2" d="M162.3,196.1v2.5h-3.1v8H156v-8h-3.1v-2.5H162.3z"/>
		<path class="st2" d="M169.3,204.9H165l-0.6,1.7h-3.3l4.6-10.5h3.3l4.4,10.5H170L169.3,204.9z M168.5,202.6l-1.3-3.4l-1.3,3.4
			H168.5z"/>
	</g>
</g>
<g>
	<path class="st3" d="M76.1,119.9l57.4-32c2.1-1.2,2.1-4.2,0.1-5.4l-16.6-9.9L57,106.1c-3.7,2.1-3.8,7.3-0.1,9.5l6.9,4.1
		C67.5,122,72.3,122.1,76.1,119.9z"/>
	<polygon class="st4" points="99.2,146.6 141.1,122.9 125.2,113.5 83.2,137.3 	"/>
	<g>
		<linearGradient id="XMLID_20_" gradientUnits="userSpaceOnUse" x1="113.7223" y1="44.2609" x2="119.6057" y2="34.0705">
			<stop  offset="0" style="stop-color:#63B9E8"/>
			<stop  offset="5.184390e-02" style="stop-color:#63CAF1"/>
			<stop  offset="8.395500e-02" style="stop-color:#70CAF1"/>
			<stop  offset="0.1681" style="stop-color:#85CCF0"/>
			<stop  offset="0.2317" style="stop-color:#8CCCF0"/>
			<stop  offset="0.4317" style="stop-color:#8CCCF0"/>
			<stop  offset="0.6647" style="stop-color:#A5DEF6"/>
		</linearGradient>
		<path id="XMLID_18_" class="st5" d="M114.4,44.6c1.9,1.3,4.3,2.1,6.5,2.7c0.9,0.2,1.8,0.4,2.7,0.4c0.3-1.2,0.4-2.4,0.5-3.6
			c4.1,0,3.3-5.6,3.3-5.6L117.1,33c-0.3-0.2-0.6-0.3-0.8-0.5l0,0l0,0c-2.2-1.1-5.1-0.9-8.2,0.6C106.4,36.3,111.7,42.7,114.4,44.6z"
			/>
		<linearGradient id="XMLID_21_" gradientUnits="userSpaceOnUse" x1="56.9489" y1="100.1814" x2="81.7383" y2="57.2448">
			<stop  offset="0" style="stop-color:#63B9E8"/>
			<stop  offset="5.184390e-02" style="stop-color:#63CAF1"/>
			<stop  offset="8.395500e-02" style="stop-color:#70CAF1"/>
			<stop  offset="0.1681" style="stop-color:#85CCF0"/>
			<stop  offset="0.2317" style="stop-color:#8CCCF0"/>
			<stop  offset="0.4317" style="stop-color:#8CCCF0"/>
			<stop  offset="0.6647" style="stop-color:#A5DEF6"/>
		</linearGradient>
		<path id="XMLID_17_" class="st6" d="M60.5,95.9l34.4-19.8c-2.9-2.8-5.8-5.7-8.8-8.5c-3.9-3.5-7.9-6.9-11.6-10.7
			c-2.5-2.6-8.1-7.1-10.5-9.9c-3.7,4.3-6.2,10.2-6.2,15.2c0,1.1,0.1,2.1,0.3,3c-0.4,0.2-0.7,0.4-1.1,0.6c-6.9,4-12.4,13.6-12.4,21.4
			c0,3.9,1.4,6.6,3.5,7.9l0,0l0.1,0c0,0,0,0,0,0l10.7,5.8l1.7-4.7l-1,0C60,96.3,60.3,96.1,60.5,95.9z"/>
		<linearGradient id="XMLID_22_" gradientUnits="userSpaceOnUse" x1="84.0286" y1="66.185" x2="105.9115" y2="28.2827">
			<stop  offset="0" style="stop-color:#63B9E8"/>
			<stop  offset="5.184390e-02" style="stop-color:#63CAF1"/>
			<stop  offset="8.395500e-02" style="stop-color:#70CAF1"/>
			<stop  offset="0.1681" style="stop-color:#85CCF0"/>
			<stop  offset="0.2317" style="stop-color:#8CCCF0"/>
			<stop  offset="0.4317" style="stop-color:#8CCCF0"/>
			<stop  offset="0.6647" style="stop-color:#A5DEF6"/>
		</linearGradient>
		<path id="XMLID_16_" class="st7" d="M119.9,48.5c-2.6-0.8-5.5-1.7-7.4-3.6c-2.2-2.2-3.5-6-2.8-9.2c-0.2,0.1-0.5,0.3-0.7,0.4
			c-0.1-1.1-0.3-2.1-0.5-3c1.8-0.6,2.9-1.7,2.9-1.7l-10.5-5.7c0,0-0.1,0-0.1-0.1l0,0l0,0c-3-1.7-7.1-1.4-11.6,1.2
			c-5.2,3-9.8,8.3-12.8,14.3c-1.9-0.5-4.3-0.1-6.9,1.3c-1.5,0.9-3,2.1-4.3,3.5c2.7,3,8.5,7.8,11.3,10.6c0.5,0.6,1.1,1.1,1.7,1.6
			c0.1,0,0.3,0.1,0.4,0.2C85,63.7,91.5,69,98.1,74.3L109,68v-0.1c0.4-0.2,0.8-0.4,1.2-0.6c6-3.5,11.2-10.8,13.1-18.1
			C122.1,49,121,48.8,119.9,48.5z"/>
		<linearGradient id="XMLID_23_" gradientUnits="userSpaceOnUse" x1="66.7936" y1="70.1828" x2="81.8693" y2="44.071">
			<stop  offset="0" style="stop-color:#63B9E8"/>
			<stop  offset="5.184390e-02" style="stop-color:#63CAF1"/>
			<stop  offset="8.395500e-02" style="stop-color:#70CAF1"/>
			<stop  offset="0.1681" style="stop-color:#85CCF0"/>
			<stop  offset="0.2317" style="stop-color:#8CCCF0"/>
			<stop  offset="0.4317" style="stop-color:#8CCCF0"/>
			<stop  offset="0.6647" style="stop-color:#A5DEF6"/>
		</linearGradient>
		<path id="XMLID_15_" class="st8" d="M69.4,42.5C63,46.1,57.9,55,57.9,62.3c0,1.1,0.1,2.1,0.3,3L68.7,71c27,4,18-24.1,18-24.1
			l-10.5-5.7C74.3,40.6,71.9,41,69.4,42.5z"/>
		<path class="st9" d="M129.6,47.4c0,4-1.4,8.5-3.9,12.8c-2.4,4.1-5.4,7.4-8.7,9.4c-0.2,0.1-0.4,0.2-0.6,0.3
			c-0.3,0.1-0.5,0.3-0.7,0.4c-0.1,0.1-0.2,0.1-0.3,0.1l-1,0.5v0.1l-15.7,9l-7.6,4.4L66.8,98.6c-0.3,0.1-0.5,0.3-0.7,0.4
			c-0.4,0.2-0.7,0.3-1.1,0.5c-1,0.4-2,0.6-2.9,0.6c-3.2,0-5.2-2.7-5.2-7.1c0-1.2,0.1-2.4,0.4-3.7c0.4-2.1,1.2-4.3,2.4-6.5
			c0.2-0.4,0.4-0.8,0.6-1.2c2.2-3.8,5.1-6.9,8.2-8.6c0.3-0.2,0.6-0.3,1-0.5l1.2-0.6l-0.3-1.3c-0.2-0.8-0.3-1.6-0.3-2.6
			c0-3.4,1.3-7.3,3.3-10.7c1.2-2,2.7-3.9,4.3-5.4c0.5-0.5,1.1-1,1.7-1.4c0.5-0.3,0.9-0.6,1.4-0.9c1.5-0.9,3-1.3,4.3-1.3
			c0.5,0,0.9,0.1,1.3,0.2l1.3,0.4l0.6-1.2c3-5.9,7.4-10.9,12.1-13.6c1.2-0.7,2.5-1.2,3.6-1.6c0.3-0.1,0.5-0.2,0.8-0.2
			c0.8-0.2,1.5-0.3,2.2-0.3c1.2,0,2.2,0.2,3.1,0.7c0.1,0.1,0.2,0.1,0.3,0.2c1.4,0.8,2.5,2.2,3.2,4c0.4,1,0.6,2.2,0.8,3.6l0.2,2.8
			l1-0.7l1.3-0.9c0.4-0.3,0.8-0.5,1.2-0.7c0.4-0.3,0.9-0.5,1.3-0.7c1.4-0.7,2.8-1,4.1-1c0.3,0,0.6,0,0.9,0.1c0,0,0.1,0,0.1,0
			C127.8,39.8,129.6,42.8,129.6,47.4z"/>
		<path id="XMLID_14_" class="st10" d="M109.4,32.6c0.1,0.1,0.2,0.1,0.3,0.2c2.2,1.3,3.6,3.9,3.9,7.6l0.2,2.4l0.8,0.5l-0.2-2.9
			c-0.3-3.6-1.7-6.3-3.9-7.6c-0.1-0.1-0.2-0.1-0.3-0.2c-0.9-0.4-1.8-0.7-2.9-0.7C108,32.1,108.7,32.3,109.4,32.6z"/>
		<path id="XMLID_13_" class="st10" d="M124.6,39.3c0,0-0.1,0-0.1,0c-0.3,0-0.6-0.1-0.9-0.1c0,0,0.1,0,0.1,0c0,0,0.1,0,0.1,0
			c3.1,0.5,4.9,3.5,4.9,8.1c0,4-1.4,8.5-3.9,12.8c-2.4,4.1-5.4,7.4-8.7,9.4c-0.2,0.1-0.4,0.2-0.6,0.3c-0.3,0.1-0.5,0.3-0.7,0.4
			c-0.1,0.1-0.2,0.1-0.3,0.1l-1,0.5v0.1l-15.7,9l-7.6,4.4L66.1,98.6c-0.3,0.1-0.5,0.3-0.7,0.4c-0.4,0.2-0.7,0.3-1.1,0.5
			c-1,0.4-2,0.6-2.9,0.6c0,0,0,0,0,0c0.2,0,0.5,0.1,0.7,0.1c0.9,0,1.9-0.2,2.9-0.6c0.4-0.1,0.7-0.3,1.1-0.5c0.2-0.1,0.5-0.3,0.7-0.4
			l24.3-14.1l7.6-4.4l15.7-9V71l1-0.5c0.1,0,0.2-0.1,0.3-0.1c0.2-0.1,0.5-0.2,0.7-0.4c0.2-0.1,0.4-0.2,0.6-0.3
			c3.3-2,6.3-5.4,8.7-9.4c2.5-4.3,3.9-8.8,3.9-12.8C129.6,42.8,127.8,39.8,124.6,39.3z"/>
		<path class="st11" d="M124.9,37.6c-2.2-0.4-4.8,0.2-7.6,1.8c-0.4,0.2-0.9,0.5-1.3,0.8c-0.4-4.5-2.3-7.7-5.2-9.1
			c-1.8-0.9-4-1.1-6.4-0.6c-1.6,0.3-3.2,1-4.9,2c-5.2,3-9.8,8.3-12.8,14.3c-1.9-0.5-4.3-0.1-6.9,1.3c-0.5,0.3-1,0.6-1.5,1
			c-5.6,4.1-9.9,12.1-9.9,18.8c0,1.1,0.1,2.1,0.3,3c-0.4,0.2-0.7,0.4-1.1,0.6c-6.9,4-12.4,13.6-12.4,21.4c0,7.1,4.5,10.3,10.3,8.1
			c0.7-0.3,1.4-0.6,2.1-1l3.2-1.8l0,0l1.6-0.9l3.3-1.9l7.6-4.4l4.9-2.8l2.3-1.3l5.2-3l1.6-0.9l0.7-0.4l0.9-0.5l1.6-0.9l5.9-3.4
			l9.4-5.5V72c0.1-0.1,0.3-0.1,0.4-0.2c0.3-0.1,0.5-0.3,0.8-0.4c7.7-4.4,13.9-15.2,13.9-24C131.3,41.8,128.7,38.3,124.9,37.6z
			 M117.1,69.6c-0.2,0.1-0.4,0.2-0.6,0.3c-0.3,0.2-0.5,0.3-0.7,0.4c-0.1,0.1-0.2,0.1-0.3,0.1l-1,0.5v0.2l-7.7,4.5l-6,3.5L99.1,80
			l-0.3,0.2l-1.3,0.7l-1.6,0.9l-4.7,2.7l-2.9,1.7L85,88.1L83.4,89l-7.6,4.4l-4.9,2.8h0l-4.1,2.3c-0.2,0.2-0.5,0.3-0.8,0.4
			c-0.4,0.2-0.7,0.3-1.1,0.5c-1,0.4-2,0.6-2.9,0.6c-3.2,0-5.2-2.7-5.2-7.1c0-1.2,0.1-2.5,0.4-3.7c0.4-2.1,1.2-4.3,2.4-6.5
			c0.2-0.4,0.4-0.8,0.6-1.2c2.2-3.8,5.1-6.9,8.2-8.6c0.3-0.2,0.6-0.3,1-0.5l1.2-0.6l-0.3-1.3c-0.2-0.8-0.3-1.6-0.3-2.6
			c0-3.4,1.3-7.3,3.3-10.7c1.2-2,2.7-3.8,4.3-5.4c0.5-0.5,1.1-1,1.7-1.4c0.5-0.3,0.9-0.6,1.4-0.9c1.5-0.9,3-1.3,4.3-1.3
			c0.5,0,0.9,0.1,1.3,0.2l1.3,0.4l0.6-1.2c3-5.9,7.4-10.9,12.1-13.6c1.2-0.7,2.5-1.3,3.6-1.6c0.3-0.1,0.5-0.2,0.8-0.2
			c0.8-0.2,1.5-0.2,2.2-0.2c1.2,0,2.2,0.2,3.1,0.7c0.1,0.1,0.2,0.1,0.3,0.2c1.4,0.8,2.5,2.2,3.2,4c0.4,1,0.6,2.2,0.8,3.5l0.2,2.8
			l1.1-0.7l1.3-0.9c0.4-0.3,0.8-0.5,1.2-0.7c0.4-0.2,0.9-0.5,1.3-0.7c1.4-0.7,2.8-1,4.1-1c0.3,0,0.6,0,0.9,0.1c0,0,0.1,0,0.1,0
			c3.1,0.5,4.9,3.5,4.9,8.1c0,4-1.4,8.5-3.9,12.8C123.4,64.2,120.3,67.6,117.1,69.6z"/>
		<polygon class="st12" points="94.7,55.5 103.9,65.2 103.9,80 106.7,78.3 106.7,64.1 98.8,54.8 		"/>
	</g>
	<g>
		<g>
			<path class="st13" d="M139.1,94.7l0.3,24l-41,25.4l-1.5-0.8l-0.6-39.6c0-2.5,1.3-4.8,3.4-6.1l21.2-12.2c0-1.6,0.5-3.2,1.5-4.4
				c0.5-0.6,1.2-1.2,1.9-1.6l10.7-6.2c0.5-0.3,1-0.4,1.5-0.3c0.3,0,0.6,0.1,0.8,0.2c0.1,0.1,1.7,0.9,1.8,1c0.2,0.1,0.2,0.2,0.1,0.3
				c-0.1,0.1-0.5,0.3-0.6,0.7c0,0.1,0,0.1,0,0.2l0.1,10.4l0,2.9L139.1,94.7z"/>
			<path class="st14" d="M99.4,97.8l1.6,0.8l21.6-12.5l-1.5-0.8c0,0,0,0,0,0L99.8,97.6C99.6,97.6,99.5,97.7,99.4,97.8z"/>
			<path class="st14" d="M139.7,74.5l-0.9,0.5l-13.2,7.6l-3.1-1.7c0.5-0.6,1.2-1.2,1.9-1.6l10.7-6.2c0.5-0.3,1-0.4,1.5-0.3l2.8,1.5
				L139.7,74.5z"/>
			<path id="XMLID_12_" class="st15" d="M136.6,73.9l-10.7,6.2c-2.2,1.3-3.5,3.6-3.4,6.1l0,0l-21.2,12.2c-2.2,1.2-3.5,3.6-3.4,6.1
				l0.6,39.6l42.5-24.6L140.3,76C140.3,74.1,138.3,73,136.6,73.9z"/>
			<g id="XMLID_10_">
				<polygon id="XMLID_11_" class="st16" points="142.2,76.1 99.2,140.4 99.4,100.4 141.9,75.9 				"/>
			</g>
			<g id="XMLID_8_">
				<polygon id="XMLID_9_" class="st17" points="142,116 99.5,140.5 99.7,100.6 142.2,76.1 				"/>
			</g>
			<polygon id="XMLID_7_" class="st18" points="142.7,115.8 99.5,140.5 99.5,126.3 101.1,102.7 142.1,79.1 			"/>
			<g id="XMLID_2_">
				<polygon id="XMLID_6_" class="st19" points="142.7,115.8 100.1,140.3 102.3,103 144.8,78.4 				"/>
				<polygon id="XMLID_5_" class="st16" points="148.1,80.4 100.8,140.8 105.3,104.7 147.8,80.2 				"/>
				<polygon id="XMLID_4_" class="st20" points="143.6,116.4 101.1,141 105.6,104.9 148.1,80.4 				"/>
				<polygon class="st21" points="125.2,93.6 121.4,95.8 120.1,104.8 124.3,102.5 				"/>
				<polygon id="XMLID_3_" class="st18" points="101.1,141 139.6,118.7 144.6,96.3 147.4,84.1 129.6,94.5 128.9,97.2 104.8,111 
					104.2,116.2 				"/>
			</g>
			<path class="st13" d="M148.6,87.4c-0.2,0.1-0.5,0.3-0.6,0.7l-0.4,1.6l-1.6,7.4l-5,22.4l-15.8,9.2l-25.2,16.5l-1.5-1.1l2.1-8.2
				l5.7-21.7c0.5-1.8,1.6-3.3,3.2-4.2l20.7-12l0.5-2.1c0.2-0.8,0.5-1.7,1-2.4c0.6-0.8,1.3-1.5,2.2-2.1l10.4-6
				c0.4-0.2,0.8-0.3,1.2-0.3c0.5,0,1,0.1,1.4,0.4c0.3,0.2,1.7,1.2,1.8,1.4C149,87.2,148.8,87.3,148.6,87.4z"/>
			<path class="st14" d="M109.5,110c-0.3,0.2-0.6,0.4-0.8,0.6l1.5,1.1l21.6-12.5l-1.5-1.1L109.5,110z"/>
			<path class="st14" d="M148.6,87.4c-0.2,0.1-0.5,0.3-0.6,0.7l-0.4,1.6l-11.9,6.9l-4-3.1c0.6-0.8,1.3-1.5,2.2-2.1l10.4-6
				c0.4-0.2,0.8-0.3,1.2-0.3L148.6,87.4z"/>
			<path class="st22" d="M145.8,86.5c1.9-1.1,4.1,0.6,3.6,2.7l-2,9l-5,22.4l-15.8,9.2l-15.3,8.8l-11.4,6.6l2.1-8.2l5.7-21.7
				c0.5-1.8,1.6-3.3,3.2-4.2l20.7-12l0.5-2.2c0.4-1.9,1.6-3.5,3.3-4.4L145.8,86.5z"/>
			<path id="XMLID_1_" class="st23" d="M147.4,98.3l-5,22.4l-42.5,24.6l2.2-8.2C110.5,121.3,134.7,105.6,147.4,98.3z"/>
		</g>
		<g>
			<g>
				<path class="st21" d="M120.2,129.5c-1.1,0-2.1-0.3-2.9-0.8c-1.5-1.1-2.1-3-1.6-5.5l0.8,0.2c-0.4,2.2,0,3.8,1.2,4.7
					c1.7,1.2,4.8,0.8,8.1-1.2c6.2-3.7,12.2-11.3,13.3-16.9c0.4-2.3,0-4-1.2-4.9c-1.6-1.2-4.5-0.7-7.7,1.2l-0.4-0.7
					c3.5-2.1,6.7-2.5,8.6-1.1c1.5,1.1,2.1,3.1,1.6,5.8c-1.1,5.9-7.3,13.7-13.7,17.5C124.1,128.8,121.9,129.5,120.2,129.5z"/>
			</g>
			<path class="st21" d="M127.8,116.2l-9.9,5.9c-0.9,4.9,2.6,6.3,7.9,3.1c5.3-3.1,10.4-9.6,11.3-14.5c0.9-4.8-2.4-6.2-7.6-3.3
				L127.8,116.2z"/>
			<polygon class="st24" points="128,106.8 126.3,115.6 116.3,121.5 118.1,112.7 			"/>
		</g>
	</g>
	<g>
		<path class="st25" d="M119.9,77.7L119.9,77.7c2.5,1.4,5.5-0.3,5.5-3.1l0,0c0-1.3-0.7-2.5-1.8-3.1l0,0c-2.4-1.4-5.5,0.3-5.5,3.1
			l0,0C118.1,75.9,118.7,77.1,119.9,77.7z"/>
		<g>
			<path class="st25" d="M114.6,60.6l-15.8-5.7l-3.9,0.6c0,0-0.2,0-0.3,0.1l18.5,6.4c4.3,1.4,7,4.1,7,7v27.3l2.8-1.4V69
				C122.9,65.5,119.7,62.3,114.6,60.6z"/>
		</g>
	</g>
</g>
<g>
	<g>
		<polygon class="st26" points="156.8,146.2 156.9,135 131.4,149.3 131.3,160.4 		"/>
		<polygon class="st26" points="165.2,169.5 138.2,153.4 138.1,164.5 165.1,180.6 		"/>
		<polygon class="st26" points="154,174 153.8,185.2 204.7,189.8 204.8,178.7 		"/>
		<polygon class="st26" points="131.4,149.3 120.1,142.5 120,153.7 131.3,160.4 		"/>
	</g>
	<g>
		<polygon class="st27" points="197.3,159.1 163.7,139.1 138.2,153.4 171.7,173.4 		"/>
		<polygon class="st27" points="156.9,135 145.6,128.3 120.1,142.5 131.4,149.3 		"/>
		<polygon class="st27" points="154,174 204.8,178.7 199,148.9 		"/>
		<polygon class="st27" points="155,174.1 204.4,177 200,149 		"/>
	</g>
</g>
</svg>
