<?xml version="1.0" encoding="utf-8"?>
<!-- Generator: Adobe Illustrator 24.1.1, SVG Export Plug-In . SVG Version: 6.00 Build 0)  -->
<svg version="1.1" xmlns="http://www.w3.org/2000/svg" xmlns:xlink="http://www.w3.org/1999/xlink" x="0px" y="0px"
	 viewBox="0 0 500 500" style="enable-background:new 0 0 500 500;" xml:space="preserve">
<style type="text/css">
	.st0{fill:#E0E0E0;}
	.st1{fill:#FFFFFF;}
	.st2{fill:#EBEBEB;}
	.st3{fill:#FAFAFA;}
	.st4{fill:#F5F5F5;}
	.st5{display:none;}
	.st6{display:inline;}
	.st7{fill:#263238;}
	.st8{fill:#285672;}
	.st9{fill:#455A64;}
	.st10{fill:#2F86BA;}
	.st11{fill:#3EAFBA;}
	.st12{fill:#009BD4;}
	.st13{fill:#2D89A4;}
	.st14{opacity:0.3;}
	.st15{opacity:0.6;}
	.st16{fill:#FFBE9D;}
	.st17{fill:#EB996E;}
	.st18{fill:#70BDC7;}
</style>
<g id="Background_Complete">
	<g>
		<g>
			<g>
				<g>
					<polygon class="st0" points="174.1,42.4 174.1,132.5 44.7,132.5 40.1,43 					"/>
				</g>
			</g>
		</g>
		<g>
			<g>
				<g>
					
						<rect x="60.1" y="23" transform="matrix(6.123234e-17 -1 1 6.123234e-17 17.0694 192.404)" class="st1" width="89.2" height="129.4"/>
				</g>
			</g>
			<g>
				<g>
					<path class="st0" d="M170,132.9H39.4V42.4H170V132.9z M40.7,131.7h128.1v-88H40.7V131.7z"/>
				</g>
			</g>
		</g>
		<g>
			<g>
				<g>
					<g>
						<rect x="54.1" y="54.1" class="st1" width="101.3" height="67.1"/>
					</g>
				</g>
			</g>
			<g>
				<g>
					<g>
						<g>
							<path class="st0" d="M155.4,54.1c0,0-0.2,0-0.5,0c-0.3,0-0.8,0-1.4,0c-1.3,0-3.1,0-5.6,0c-4.9,0-11.9,0-20.9,0.1
								c-17.9,0-43.2,0.1-72.9,0.1l0.3-0.3c0,20.5,0,43.2,0,67.1v0l-0.3-0.3c38.2,0,73.5,0,101.3,0.1l-0.3,0.3
								c0.1-20.4,0.1-37.1,0.1-48.8c0-5.8,0-10.4,0.1-13.5c0-1.5,0-2.7,0-3.5C155.4,54.6,155.4,54.1,155.4,54.1s0,0.4,0,1.2
								c0,0.8,0,2,0,3.5c0,3.1,0,7.6,0.1,13.4c0,11.7,0.1,28.5,0.1,49l0,0.3l-0.3,0c-27.9,0-63.1,0-101.3,0.1l-0.3,0v-0.3v0
								c0-23.9,0-46.6,0-67.1l0-0.3l0.3,0c29.9,0.1,55.2,0.1,73.1,0.1c8.9,0,16,0.1,20.8,0.1c2.4,0,4.2,0,5.5,0c0.6,0,1.1,0,1.4,0
								C155.3,54.1,155.4,54.1,155.4,54.1z"/>
						</g>
					</g>
				</g>
			</g>
		</g>
		<g>
			<g>
				<g>
					<g>
						<path class="st0" d="M40.1,42.8c0.1-0.1,0.9,0.5,2.2,1.4c1.3,1,3.1,2.3,5.1,3.9c1.9,1.6,3.7,3,4.9,4.1
							c1.2,1.1,1.9,1.8,1.9,1.9c-0.1,0.1-3.2-2.4-7.1-5.5C43.1,45.5,39.9,42.9,40.1,42.8z"/>
					</g>
				</g>
			</g>
		</g>
		<g>
			<g>
				<g>
					<g>
						<path class="st0" d="M169.4,43c0.1,0.1-2.9,2.7-6.8,5.8c-3.9,3.1-7.1,5.4-7.2,5.3c-0.1-0.1,2.9-2.7,6.8-5.8
							C166.1,45.3,169.3,42.9,169.4,43z"/>
					</g>
				</g>
			</g>
		</g>
		<g>
			<g>
				<g>
					<g>
						<path class="st1" d="M169.3,132.3c-4.8-3.9-9.6-7.8-14.4-11.7"/>
					</g>
				</g>
			</g>
			<g>
				<g>
					<g>
						<g>
							<path class="st0" d="M154.9,120.6c0.1-0.1,3.4,2.4,7.4,5.6c4,3.2,7.1,6,7,6.1c-0.1,0.1-3.4-2.4-7.4-5.6
								C157.9,123.5,154.8,120.7,154.9,120.6z"/>
						</g>
					</g>
				</g>
			</g>
		</g>
		<g>
			<g>
				<g>
					<g>
						<path class="st0" d="M40.1,132.3c-0.1-0.1,2.9-2.7,6.7-5.7c3.8-3,7-5.4,7.1-5.2c0.1,0.1-2.9,2.7-6.7,5.7
							C43.4,130.1,40.2,132.4,40.1,132.3z"/>
					</g>
				</g>
			</g>
		</g>
		<g>
			<g>
				<g>
					
						<rect x="95.3" y="54.4" transform="matrix(6.123234e-17 -1 1 6.123234e-17 20.2678 192.7825)" class="st2" width="22.5" height="63.8"/>
				</g>
			</g>
		</g>
	</g>
	<g>
		<g>
			<g>
				<g>
					<g>
						<g>
							<g>
								<path class="st0" d="M317.6,338.2v12.5H264c-3.4,0-6.2-2.8-6.2-6.2v0c0-3.4,2.8-6.2,6.2-6.2"/>
							</g>
						</g>
					</g>
				</g>
			</g>
			<g>
				<g>
					<g>
						<g>
							<g>
								<path class="st3" d="M317.6,348.1h-18c-1.8,0-3.3-1.5-3.3-3.3v-0.7c0-1.8,1.5-3.3,3.3-3.3h18V348.1z"/>
							</g>
						</g>
					</g>
				</g>
			</g>
		</g>
		<g>
			<g>
				<g>
					<g>
						<g>
							<g>
								<path class="st4" d="M317.6,325.7v12.5H264c-3.4,0-6.2-2.8-6.2-6.2v0c0-3.4,2.8-6.2,6.2-6.2H317.6z"/>
							</g>
						</g>
					</g>
				</g>
			</g>
			<g>
				<g>
					<g>
						<g>
							<g>
								<path class="st0" d="M317.6,335.6h-18c-1.8,0-3.3-1.5-3.3-3.3v-0.7c0-1.8,1.5-3.3,3.3-3.3h18V335.6z"/>
							</g>
						</g>
					</g>
				</g>
			</g>
		</g>
		<g>
			<g>
				<g>
					<polygon class="st0" points="215.4,331 206.9,351 212.4,351 216.2,340.3 					"/>
				</g>
			</g>
			<g>
				<g>
					<g>
						<g>
							<polygon class="st2" points="241.6,312.9 244.9,351 217,351 214,312.9 							"/>
						</g>
					</g>
					<g>
						<g>
							<polygon class="st3" points="238.9,315.9 241.8,347.9 220.9,348.1 218,315.7 							"/>
						</g>
					</g>
				</g>
				<g>
					<g>
						<polygon class="st0" points="234.4,320.3 236.1,342.3 224.9,342.3 223,320.3 						"/>
					</g>
				</g>
			</g>
		</g>
		<g>
			<g>
				<g>
					<g>
						<rect x="189.1" y="350.7" class="st4" width="150.8" height="13.9"/>
					</g>
				</g>
			</g>
			<g>
				<g>
					<g>
						<polygon class="st4" points="333.9,473.6 198.3,474.1 198.3,364.6 333.9,364.6 						"/>
					</g>
				</g>
			</g>
			<g>
				<g>
					<g>
						<g>
							<path class="st0" d="M339.9,364.6c0,0.1-33.8,0.3-75.4,0.3c-41.6,0-75.4-0.1-75.4-0.3c0-0.1,33.7-0.3,75.4-0.3
								C306.2,364.4,339.9,364.5,339.9,364.6z"/>
						</g>
					</g>
				</g>
			</g>
			<g>
				<g>
					<g>
						<g>
							<path class="st0" d="M322.7,410.8c0,0,0-0.2,0-0.7c0-0.4,0-1.1,0-1.9c0-1.7,0-4.2,0-7.4c0-6.5-0.1-15.8-0.1-27.6l0.2,0.2
								c-27.2,0-67.9,0.1-113.2,0.1h0l0.3-0.3c0,13.1,0,25.7,0,37.6l-0.3-0.3c32.6,0,60.8,0.1,81,0.1c10.1,0,18.1,0.1,23.7,0.1
								c2.8,0,4.9,0,6.4,0c0.7,0,1.3,0,1.7,0C322.5,410.8,322.7,410.8,322.7,410.8s-0.2,0-0.5,0c-0.4,0-0.9,0-1.6,0
								c-1.5,0-3.6,0-6.3,0c-5.5,0-13.6,0-23.6,0.1c-20.2,0-48.5,0.1-81.2,0.1l-0.3,0v-0.3c0-11.9,0-24.5,0-37.6l0-0.3h0.3h0
								c45.4,0,86,0.1,113.2,0.1l0.2,0l0,0.2c0,11.8-0.1,21.2-0.1,27.7c0,3.2,0,5.7,0,7.4c0,0.8,0,1.5,0,1.9
								C322.7,410.6,322.7,410.8,322.7,410.8z"/>
						</g>
					</g>
				</g>
			</g>
			<g>
				<g>
					<g>
						<g>
							<path class="st0" d="M214,405.9c0.1,0.1-0.8,1.2-2,2.5c-1.2,1.3-2.3,2.2-2.4,2.1c-0.1-0.1,0.8-1.2,2-2.5
								C212.8,406.8,213.9,405.8,214,405.9z"/>
						</g>
					</g>
				</g>
			</g>
			<g>
				<g>
					<g>
						<g>
							<path class="st0" d="M214,378.2c-0.1,0.1-1.2-0.9-2.4-2.3c-1.2-1.4-2.2-2.5-2-2.6c0.1-0.1,1.2,0.9,2.4,2.3
								C213.2,376.9,214.1,378.1,214,378.2z"/>
						</g>
					</g>
				</g>
			</g>
			<g>
				<g>
					<g>
						<g>
							<path class="st0" d="M322.9,373.3c0.1,0.1-1,1.3-2.5,2.6c-1.5,1.3-2.7,2.3-2.8,2.2c-0.1-0.1,1-1.3,2.5-2.6
								C321.6,374.3,322.8,373.3,322.9,373.3z"/>
						</g>
					</g>
				</g>
			</g>
			<g>
				<g>
					<g>
						<g>
							<path class="st0" d="M322.7,410.8c-0.1,0.1-1.3-0.9-2.7-2.3c-1.4-1.4-2.5-2.6-2.4-2.7c0.1-0.1,1.3,0.9,2.7,2.3
								C321.8,409.5,322.8,410.7,322.7,410.8z"/>
						</g>
					</g>
				</g>
			</g>
			<g>
				<g>
					<g>
						<g>
							<path class="st0" d="M317.6,405.9c0,0,0-0.2,0-0.5c0-0.3,0-0.8,0-1.4c0-1.3,0-3.1,0-5.4c0-4.8-0.1-11.7-0.1-20.4l0.2,0.2
								c-23.7,0-61.3,0.1-103.7,0.1h0l0.3-0.3c0,9.5,0,18.8,0,27.7l-0.3-0.3c29.6,0,55.5,0.1,74,0.1c9.3,0,16.7,0.1,21.8,0.1
								c2.5,0,4.5,0,5.9,0c0.7,0,1.2,0,1.5,0C317.5,405.9,317.6,405.9,317.6,405.9s-0.2,0-0.5,0c-0.4,0-0.8,0-1.5,0
								c-1.3,0-3.3,0-5.8,0c-5.1,0-12.5,0-21.7,0.1c-18.5,0-44.5,0.1-74.2,0.1l-0.3,0v-0.3c0-8.9,0-18.2,0-27.7v-0.3h0.3h0
								c42.3,0,80,0.1,103.7,0.1l0.2,0l0,0.2c0,8.8-0.1,15.7-0.1,20.5c0,2.4,0,4.2,0,5.4c0,0.6,0,1.1,0,1.4
								C317.7,405.8,317.6,405.9,317.6,405.9z"/>
						</g>
					</g>
				</g>
			</g>
			<g>
				<g>
					<g>
						<g>
							<path class="st0" d="M276.1,389.4c-0.9-0.6-1.8-1-2.8-1.3c-0.9-0.3-1.8-0.4-2.8-0.4h-7.6c-2.2,0-4.5,0.8-6.1,2.4
								c-0.4,0.4-0.7,0.8-0.9,1.1c-0.7,1.2-0.7,2.8,0.3,3.7c1,0.9,3,0.5,3.1-0.9c0,1.8,1.8,3.2,3.5,3.1c1.8-0.1,3.3-1.6,3.8-3.3
								c0,1.5,1.3,2.9,2.8,3c1.5,0.1,3-1.1,3.2-2.6c0.9,1.2,2.3,2.4,3.9,1.9c0.9-0.3,1.6-1.1,1.8-2
								C278.8,392.3,277.6,390.5,276.1,389.4z"/>
						</g>
					</g>
				</g>
				<g>
					<g>
						<g>
							<g>
								<path class="st4" d="M264.3,387.7c0.1,0.1-1.8,0.9-3.1,2.9c-1.4,1.9-1.6,3.9-1.8,3.9c-0.1,0-0.1-0.5,0-1.3
									c0.2-0.8,0.6-1.9,1.3-2.9c0.7-1,1.6-1.7,2.3-2.1C263.8,387.8,264.3,387.7,264.3,387.7z"/>
							</g>
						</g>
					</g>
				</g>
				<g>
					<g>
						<g>
							<g>
								<path class="st4" d="M267.2,388c0.1,0,0.1,1.4,0,3c-0.2,1.7-0.4,3-0.6,3c-0.1,0-0.1-1.4,0-3
									C266.8,389.3,267.1,388,267.2,388z"/>
							</g>
						</g>
					</g>
				</g>
				<g>
					<g>
						<g>
							<g>
								<path class="st4" d="M270.9,388c0-0.1,0.4,0.1,0.9,0.6c0.5,0.5,0.9,1.3,1.1,2.3c0.2,1,0.1,1.9,0,2.5c-0.1,0.6-0.2,1-0.3,1
									c-0.1,0-0.1-0.4-0.1-1c0-0.6,0-1.5-0.2-2.4c-0.2-0.9-0.5-1.7-0.8-2.2C271.1,388.3,270.8,388,270.9,388z"/>
							</g>
						</g>
					</g>
				</g>
			</g>
			<g>
				<g>
					<g>
						<g>
							<path class="st0" d="M322.7,461.1c0,0,0-0.2,0-0.7c0-0.4,0-1.1,0-1.9c0-1.7,0-4.2,0-7.4c0-6.5-0.1-15.8-0.1-27.6l0.2,0.2
								c-27.2,0-67.9,0.1-113.2,0.1h0l0.3-0.3c0,13.1,0,25.7,0,37.6l-0.3-0.3c32.6,0,60.8,0.1,81,0.1c10.1,0,18.1,0.1,23.7,0.1
								c2.8,0,4.9,0,6.4,0c0.7,0,1.3,0,1.7,0C322.5,461.1,322.7,461.1,322.7,461.1s-0.2,0-0.5,0c-0.4,0-0.9,0-1.6,0
								c-1.5,0-3.6,0-6.3,0c-5.5,0-13.6,0-23.6,0.1c-20.2,0-48.5,0.1-81.2,0.1l-0.3,0v-0.3c0-11.9,0-24.5,0-37.6l0-0.3h0.3h0
								c45.4,0,86,0.1,113.2,0.1l0.2,0l0,0.2c0,11.8-0.1,21.2-0.1,27.7c0,3.2,0,5.7,0,7.4c0,0.8,0,1.5,0,1.9
								C322.7,460.9,322.7,461.1,322.7,461.1z"/>
						</g>
					</g>
				</g>
			</g>
			<g>
				<g>
					<g>
						<g>
							<path class="st0" d="M214,456.2c0.1,0.1-0.8,1.2-2,2.5c-1.2,1.3-2.3,2.2-2.4,2.1c-0.1-0.1,0.8-1.2,2-2.5
								C212.8,457,213.9,456.1,214,456.2z"/>
						</g>
					</g>
				</g>
			</g>
			<g>
				<g>
					<g>
						<g>
							<path class="st0" d="M214,428.4c-0.1,0.1-1.2-0.9-2.4-2.3c-1.2-1.4-2.2-2.5-2-2.6c0.1-0.1,1.2,0.9,2.4,2.3
								C213.2,427.1,214.1,428.3,214,428.4z"/>
						</g>
					</g>
				</g>
			</g>
			<g>
				<g>
					<g>
						<g>
							<path class="st0" d="M322.9,423.6c0.1,0.1-1,1.3-2.5,2.6c-1.5,1.3-2.7,2.3-2.8,2.2c-0.1-0.1,1-1.3,2.5-2.6
								C321.6,424.5,322.8,423.5,322.9,423.6z"/>
						</g>
					</g>
				</g>
			</g>
			<g>
				<g>
					<g>
						<g>
							<path class="st0" d="M322.7,461.1c-0.1,0.1-1.3-0.9-2.7-2.3c-1.4-1.4-2.5-2.6-2.4-2.7c0.1-0.1,1.3,0.9,2.7,2.3
								C321.8,459.8,322.8,461,322.7,461.1z"/>
						</g>
					</g>
				</g>
			</g>
			<g>
				<g>
					<g>
						<g>
							<path class="st0" d="M317.6,456.2c0,0,0-0.2,0-0.5c0-0.3,0-0.8,0-1.4c0-1.3,0-3.1,0-5.4c0-4.8-0.1-11.7-0.1-20.4l0.2,0.2
								c-23.7,0-61.3,0.1-103.7,0.1h0l0.3-0.3c0,9.5,0,18.8,0,27.7l-0.3-0.3c29.6,0,55.5,0.1,74,0.1c9.3,0,16.7,0.1,21.8,0.1
								c2.5,0,4.5,0,5.9,0c0.7,0,1.2,0,1.5,0C317.5,456.2,317.6,456.2,317.6,456.2s-0.2,0-0.5,0c-0.4,0-0.8,0-1.5,0
								c-1.3,0-3.3,0-5.8,0c-5.1,0-12.5,0-21.7,0.1c-18.5,0-44.5,0.1-74.2,0.1l-0.3,0v-0.3c0-8.9,0-18.2,0-27.7v-0.3h0.3h0
								c42.3,0,80,0.1,103.7,0.1l0.2,0l0,0.2c0,8.8-0.1,15.7-0.1,20.5c0,2.4,0,4.2,0,5.4c0,0.6,0,1.1,0,1.4
								C317.7,456,317.6,456.2,317.6,456.2z"/>
						</g>
					</g>
				</g>
			</g>
			<g>
				<g>
					<g>
						<g>
							<path class="st0" d="M276.1,439.7c-0.9-0.6-1.8-1-2.8-1.3c-0.9-0.3-1.8-0.4-2.8-0.4h-7.6c-2.2,0-4.5,0.8-6.1,2.4
								c-0.4,0.4-0.7,0.8-0.9,1.1c-0.7,1.2-0.7,2.8,0.3,3.7c1,0.9,3,0.5,3.1-0.9c0,1.8,1.8,3.2,3.5,3.1c1.8-0.1,3.3-1.6,3.8-3.3
								c0,1.5,1.3,2.9,2.8,3c1.5,0.1,3-1.1,3.2-2.6c0.9,1.2,2.3,2.4,3.9,1.9c0.9-0.3,1.6-1.1,1.8-2
								C278.8,442.5,277.6,440.8,276.1,439.7z"/>
						</g>
					</g>
				</g>
				<g>
					<g>
						<g>
							<g>
								<path class="st4" d="M264.3,438c0.1,0.1-1.8,0.9-3.1,2.9c-1.4,1.9-1.6,3.9-1.8,3.9c-0.1,0-0.1-0.5,0-1.3
									c0.2-0.8,0.6-1.9,1.3-2.9c0.7-1,1.6-1.7,2.3-2.1C263.8,438,264.3,437.9,264.3,438z"/>
							</g>
						</g>
					</g>
				</g>
				<g>
					<g>
						<g>
							<g>
								<path class="st4" d="M267.2,438.3c0.1,0,0.1,1.4,0,3c-0.2,1.7-0.4,3-0.6,3c-0.1,0-0.1-1.4,0-3
									C266.8,439.6,267.1,438.3,267.2,438.3z"/>
							</g>
						</g>
					</g>
				</g>
				<g>
					<g>
						<g>
							<g>
								<path class="st4" d="M270.9,438.2c0-0.1,0.4,0.1,0.9,0.6c0.5,0.5,0.9,1.3,1.1,2.3c0.2,1,0.1,1.9,0,2.5c-0.1,0.6-0.2,1-0.3,1
									c-0.1,0-0.1-0.4-0.1-1c0-0.6,0-1.5-0.2-2.4c-0.2-0.9-0.5-1.7-0.8-2.2C271.1,438.5,270.8,438.3,270.9,438.2z"/>
							</g>
						</g>
					</g>
				</g>
			</g>
		</g>
	</g>
	<g>
		<g>
			<g>
				<g>
					<rect x="359.2" y="33.3" class="st0" width="66.6" height="69.4"/>
				</g>
			</g>
		</g>
		<g>
			<g>
				<g>
					<rect x="354.7" y="33.3" class="st2" width="66.6" height="69.4"/>
				</g>
			</g>
		</g>
		<g>
			<g>
				<g>
					<rect x="363.6" y="42.6" class="st1" width="48.7" height="50.8"/>
				</g>
			</g>
		</g>
		<g>
			<g>
				<g>
					<g>
						<path class="st0" d="M363.6,93.7c0,0-0.4,0.6-1.2,1.4c-0.8,0.8-1.9,1.9-3.1,3.1c-1.2,1.2-2.3,2.3-3.2,3.1
							c-0.8,0.8-1.4,1.2-1.4,1.2c0,0,0.4-0.6,1.2-1.4c0.8-0.8,1.9-1.9,3.1-3.1c1.2-1.2,2.4-2.3,3.2-3.1
							C363.1,94.2,363.6,93.7,363.6,93.7z"/>
					</g>
				</g>
			</g>
		</g>
		<g>
			<g>
				<g>
					<g>
						<path class="st0" d="M412.3,93.6c0,0,0.6,0.4,1.4,1.2c0.8,0.8,1.9,1.9,3.1,3.1c1.2,1.2,2.3,2.3,3.1,3.2
							c0.8,0.8,1.2,1.4,1.2,1.4c0,0-0.6-0.4-1.4-1.2c-0.8-0.8-1.9-1.9-3.1-3.1c-1.2-1.2-2.3-2.4-3.1-3.2
							C412.7,94.2,412.3,93.6,412.3,93.6z"/>
					</g>
				</g>
			</g>
		</g>
		<g>
			<g>
				<g>
					<g>
						<path class="st0" d="M412.2,42.8c0,0,0.4-0.6,1.2-1.4c0.8-0.8,1.9-1.9,3.1-3.1c1.2-1.2,2.3-2.3,3.2-3.1
							c0.8-0.8,1.4-1.2,1.4-1.2c0,0-0.4,0.6-1.2,1.4c-0.8,0.8-1.9,1.9-3.1,3.1c-1.2,1.2-2.4,2.3-3.2,3.1
							C412.8,42.3,412.2,42.8,412.2,42.8z"/>
					</g>
				</g>
			</g>
		</g>
		<g>
			<g>
				<g>
					<g>
						<path class="st0" d="M363.5,42.9c0,0-0.6-0.4-1.4-1.2c-0.8-0.8-1.9-1.9-3.1-3.1c-1.2-1.2-2.3-2.3-3.1-3.2
							c-0.8-0.8-1.2-1.4-1.2-1.4c0,0,0.6,0.4,1.4,1.2c0.8,0.8,1.9,1.9,3.1,3.1c1.2,1.2,2.3,2.4,3.1,3.2
							C363.1,42.3,363.5,42.9,363.5,42.9z"/>
					</g>
				</g>
			</g>
		</g>
		<g>
			<g>
				<g>
					<g>
						<path class="st0" d="M412.2,93.4c0,0,0-0.1,0-0.2c0-0.2,0-0.4,0-0.7c0-0.6,0-1.5,0-2.7c0-2.4,0-5.9,0-10.3
							c0-8.9,0-21.6-0.1-36.7l0.2,0.2c-14.2,0-30.8,0-48.6,0h0l0.2-0.2c0,18.6,0,36.1,0,50.8l-0.2-0.2c14.6,0,26.7,0.1,35.2,0.1
							c4.2,0,7.6,0,9.9,0c1.1,0,2,0,2.6,0c0.3,0,0.5,0,0.7,0C412.1,93.4,412.2,93.4,412.2,93.4s-0.1,0-0.2,0c-0.2,0-0.4,0-0.7,0
							c-0.6,0-1.5,0-2.6,0c-2.3,0-5.6,0-9.8,0c-8.5,0-20.7,0-35.3,0.1l-0.2,0l0-0.2c0-14.7,0-32.1,0-50.8l0-0.2h0.2h0
							c17.7,0,34.4,0,48.6,0l0.2,0l0,0.2c0,15.2-0.1,27.9-0.1,36.8c0,4.4,0,7.9,0,10.3c0,1.2,0,2.1,0,2.7c0,0.3,0,0.5,0,0.7
							C412.2,93.3,412.2,93.4,412.2,93.4z"/>
					</g>
				</g>
			</g>
		</g>
		<g>
			<g>
				<g>
					<g>
						<path class="st2" d="M376.5,63.8c0,0-1,12.6,12.6,12.6C389,69.7,383.5,64.4,376.5,63.8z"/>
					</g>
				</g>
			</g>
			<g>
				<g>
					<g>
						<path class="st2" d="M401.4,63.8c0,0-12.6-1-12.6,12.6C395.5,76.4,400.8,70.9,401.4,63.8z"/>
					</g>
				</g>
			</g>
			<g>
				<g>
					<g>
						<path class="st0" d="M388.4,57c0,0-10.3,9.2,0.6,19.4C394,71.1,393.6,62.7,388.4,57z"/>
					</g>
				</g>
			</g>
		</g>
	</g>
</g>
<g id="Background_Simple" class="st5">
	<g class="st6">
		<path class="st4" d="M441,187.2c-12.8-24.5-42.5-36.1-70.1-36.1c-13.7,0-27.5,2.3-41.2,1.3c-13.7-0.9-28.1-5.7-36.2-16.8
			c-7.2-9.8-8.3-17.6-8.2-29.8c0.2-12.2,3.7-19.6,3.1-31.9c-0.4-8.3-7.8-22.7-18.8-31.7c-18.3-15-54.4-19.6-79.6-18.1
			c-43.8,2.7-83.3,25.9-109.9,60.8c-26.6,35-32.2,80.2-27.6,123.8c4.6,43.7,25,85.2,55.1,117.1c25.4,26.9,58.5,47.5,95.1,53.2
			c35.2,5.4,76.5,6,111.3-1.7c37.6-8.2,57.9-21.1,81.9-39.8c24-18.8,34-43.6,44.2-72.3C447.2,245.3,450.8,206.1,441,187.2z"/>
	</g>
</g>
<g id="Floor">
	<g>
		<g>
			<path class="st7" d="M17.4,474.1c0-0.1,103.7-0.3,231.6-0.3c127.9,0,231.6,0.1,231.6,0.3s-103.7,0.3-231.6,0.3
				C121.1,474.4,17.4,474.3,17.4,474.1z"/>
		</g>
	</g>
</g>
<g id="Window">
	<g>
		<g>
			<rect x="98.7" y="111.9" class="st1" width="292.5" height="181.2"/>
		</g>
		<g>
			<rect x="98.7" y="91.6" class="st8" width="292.5" height="22.4"/>
		</g>
		<g>
			<polygon class="st3" points="106.6,127.3 106.6,279.6 380.7,279.6 380.7,158.4 201.5,158.4 201.5,127.3 			"/>
		</g>
		<g>
			<path class="st7" d="M153.8,135.4v11.9h-2.7v-9.7h-2.4v-2.2H153.8z"/>
		</g>
		<g>
			<g>
				<rect x="209.9" y="129.7" class="st2" width="80.1" height="20.7"/>
			</g>
			<g>
				<path class="st7" d="M254.8,144.1v2h-8v-1.6l4.1-3.9c0.9-0.9,1.1-1.4,1.1-2c0-0.8-0.6-1.3-1.7-1.3c-0.9,0-1.7,0.3-2.2,1.1
					l-1.8-1.2c0.8-1.2,2.3-2,4.2-2c2.4,0,3.9,1.2,3.9,3.1c0,1-0.3,2-1.8,3.4l-2.4,2.3H254.8z"/>
			</g>
		</g>
		<g>
			<g>
				<rect x="298.8" y="129.7" class="st2" width="80.1" height="20.7"/>
			</g>
			<g>
				<path class="st7" d="M344.4,142.9c0,1.8-1.4,3.4-4.4,3.4c-1.5,0-3-0.4-4.1-1.1l1-1.9c0.8,0.6,1.9,1,3,1c1.2,0,2-0.5,2-1.4
					c0-0.8-0.6-1.3-2-1.3h-1.1v-1.6l2.2-2.5h-4.5v-2h7.4v1.6l-2.4,2.7C343.4,140.1,344.4,141.3,344.4,142.9z"/>
			</g>
		</g>
		<g>
			<g>
				<path class="st7" d="M185.1,176.8c0,0.1-13.5,0.3-30.2,0.3c-16.7,0-30.2-0.1-30.2-0.3s13.5-0.3,30.2-0.3
					C171.6,176.6,185.1,176.7,185.1,176.8z"/>
			</g>
		</g>
		<g>
			<g>
				<path class="st7" d="M362.5,192.1c0,0.1-53.2,0.3-118.8,0.3c-65.6,0-118.8-0.1-118.8-0.3c0-0.1,53.2-0.3,118.8-0.3
					C309.3,191.8,362.5,191.9,362.5,192.1z"/>
			</g>
		</g>
		<g>
			<g>
				<path class="st7" d="M362.5,203.6c0,0.1-53.2,0.3-118.8,0.3c-65.6,0-118.8-0.1-118.8-0.3c0-0.1,53.2-0.3,118.8-0.3
					C309.3,203.3,362.5,203.4,362.5,203.6z"/>
			</g>
		</g>
		<g>
			<g>
				<path class="st7" d="M362.5,215.1c0,0.1-53.2,0.3-118.8,0.3c-65.6,0-118.8-0.1-118.8-0.3c0-0.1,53.2-0.3,118.8-0.3
					C309.3,214.8,362.5,214.9,362.5,215.1z"/>
			</g>
		</g>
		<g>
			<g>
				<path class="st7" d="M229.3,228.2c0,0.1-23.1,0.3-51.5,0.3c-28.5,0-51.5-0.1-51.5-0.3c0-0.1,23.1-0.3,51.5-0.3
					C206.2,227.9,229.3,228,229.3,228.2z"/>
			</g>
		</g>
		<g>
			<g>
				<path class="st8" d="M352.7,267.9h-56.3c-8.2,0-14.8-6.6-14.8-14.8v0c0-8.2,6.6-14.8,14.8-14.8h56.3c8.2,0,14.8,6.6,14.8,14.8v0
					C367.5,261.3,360.9,267.9,352.7,267.9z"/>
			</g>
			<g>
				<g>
					<path class="st1" d="M311.1,246.9v10.6h-2l-5.3-6.5v6.5h-2.4v-10.6h2l5.3,6.5v-6.5H311.1z"/>
					<path class="st1" d="M321.4,254.2h-6.2c0.2,1,1.1,1.6,2.3,1.6c0.9,0,1.5-0.3,2-0.8l1.3,1.4c-0.8,0.9-1.9,1.3-3.4,1.3
						c-2.8,0-4.7-1.8-4.7-4.2c0-2.4,1.9-4.2,4.4-4.2c2.4,0,4.3,1.6,4.3,4.2C321.4,253.7,321.4,254,321.4,254.2z M315.2,252.8h4
						c-0.2-1-0.9-1.7-2-1.7C316.1,251.1,315.3,251.7,315.2,252.8z"/>
					<path class="st1" d="M328,257.6l-1.8-2.5l-1.9,2.5h-2.6l3.1-4.1l-3-4.1h2.7l1.7,2.4l1.8-2.4h2.5l-3,4l3.2,4.2H328z"/>
					<path class="st1" d="M337.1,257.2c-0.5,0.3-1.2,0.5-1.9,0.5c-1.9,0-3.1-1-3.1-2.9v-3.4h-1.3v-1.8h1.3v-2h2.4v2h2v1.8h-2v3.3
						c0,0.7,0.4,1.1,1,1.1c0.3,0,0.7-0.1,1-0.3L337.1,257.2z"/>
				</g>
			</g>
		</g>
		<g>
			<g>
				<path class="st7" d="M106.6,127.3c1.2,0,35.4-0.1,95-0.2l0.2,0l0,0.2c0,9.6,0,20,0,31.1l-0.2-0.2c49,0,110.4,0,179.2-0.1h0.2
					l0,0.2c0,37.8,0,78.8,0,121.1v0v0.3h-0.3c-105,0-201.1,0-274.2-0.1h-0.2l0-0.2C106.5,186,106.6,128.9,106.6,127.3
					c0,1.6,0.1,58.7,0.2,152.2l-0.2-0.2c73,0,169.2,0,274.2-0.1l-0.3,0.3v0c0-42.4,0-83.3,0-121.1l0.2,0.2
					c-68.7,0-130.2,0-179.2-0.1l-0.2,0l0-0.2c0-11,0-21.5,0-31.1l0.2,0.2C142,127.4,107.8,127.3,106.6,127.3z"/>
			</g>
		</g>
		<g>
			<g>
				<path class="st1" d="M115.7,102.8c0,1.7-1.4,3.1-3.1,3.1c-1.7,0-3.1-1.4-3.1-3.1s1.4-3.1,3.1-3.1
					C114.4,99.8,115.7,101.1,115.7,102.8z"/>
			</g>
			<g>
				<path class="st1" d="M125.2,102.8c0,1.7-1.4,3.1-3.1,3.1c-1.7,0-3.1-1.4-3.1-3.1s1.4-3.1,3.1-3.1
					C123.9,99.8,125.2,101.1,125.2,102.8z"/>
			</g>
			<g>
				<path class="st1" d="M134.8,102.8c0,1.7-1.4,3.1-3.1,3.1c-1.7,0-3.1-1.4-3.1-3.1s1.4-3.1,3.1-3.1
					C133.4,99.8,134.8,101.1,134.8,102.8z"/>
			</g>
		</g>
		<g>
			<g>
				<path class="st7" d="M391.3,293.1c0-1.7-0.1-78.9-0.2-201.5l0.2,0.2c-81.1,0-182.6,0-292.5,0.1h0l0.3-0.3
					c0,71.9,0,140.3,0,201.5l-0.2-0.2C271.3,293,389.1,293.1,391.3,293.1c-2.1,0-119.9,0.1-292.5,0.2l-0.2,0l0-0.2
					c0-61.2,0-129.5,0-201.5v-0.3h0.3h0c109.9,0,211.4,0,292.5,0.1h0.2l0,0.2C391.3,214.2,391.3,291.4,391.3,293.1z"/>
			</g>
		</g>
	</g>
</g>
<g id="Plant">
	<g>
		<g>
			<path class="st9" d="M150.9,258.3c-11.2,5.8-19.9,15.9-26.1,26.9c-6.2,11-10.2,23.2-14.2,35.2l-3.5,62.1
				c13.1-22.3,23.6-48.4,26.4-74.1c-2.9-0.3-5.8-0.5-8.7-0.8c5.8-0.9,10.7-5.1,13.9-10.1c3.1-5,4.7-10.8,6.3-16.5
				c-3.5,0.5-7.1,1.1-10.6,1.6C142.8,276.9,148.8,268.1,150.9,258.3z"/>
		</g>
		<g>
			<g>
				<path class="st10" d="M150.9,258.3c-11.2,5.8-19.9,15.9-26.1,26.9c-6.2,11-10.2,23.2-14.2,35.2l-3.5,62.1
					c13.1-22.3,23.6-48.4,26.4-74.1c-2.9-0.3-5.8-0.5-8.7-0.8c5.8-0.9,10.7-5.1,13.9-10.1c3.1-5,4.7-10.8,6.3-16.5
					c-3.5,0.5-7.1,1.1-10.6,1.6C142.8,276.9,148.8,268.1,150.9,258.3z"/>
			</g>
		</g>
		<g>
			<path class="st11" d="M105.3,397c0,0-28.4-34-28.1-66.5h11.5c0,0-12.5-8.2-11.5-12.8c1-4.6,1.3-22,1.3-22l10.5,2.6
				c0,0-7.9-3.9-8.9-10.2c-1-6.2,2.3-35.1,2.3-35.1s12.8,13.4,16.7,27.2c3.9,13.8,14.3,29.8,11.2,71.8
				C107.4,394.1,105.3,397,105.3,397z"/>
		</g>
		<g>
			<path class="st11" d="M119.7,400.2c0,0,30.8-20.5,37.6-46.7l-9.2-2.5c0,0,11.8-3.9,12-7.8c0.2-3.9,3.7-17.9,3.7-17.9l-9-0.2
				c0,0,7.2-1.4,9.3-6.2c2.2-4.8,5.8-28.7,5.8-28.7s-13.2,8-19.4,18.2c-6.2,10.2-18,20.9-24.7,55.3
				C119.2,398,119.7,400.2,119.7,400.2z"/>
		</g>
		<g>
			<g>
				<path class="st7" d="M90.2,282.8c0,0,0,0.1,0.1,0.4c0.1,0.3,0.1,0.6,0.2,1c0.2,1,0.5,2.3,0.9,4c0.4,1.8,0.9,3.9,1.3,6.4
					c0.5,2.5,1.1,5.3,1.7,8.5c1.2,6.3,2.5,13.8,3.8,22.2c1.3,8.4,2.6,17.6,3.7,27.4c1.1,9.7,2,19,2.6,27.5
					c0.6,8.5,1.1,16.1,1.4,22.5c0.2,3.2,0.2,6.1,0.3,8.7c0.1,2.5,0.1,4.7,0.1,6.5c0,1.8,0,3.2,0,4.1c0,0.5,0,0.8,0,1.1
					c0,0.2,0,0.4,0,0.4c0,0,0-0.1,0-0.4c0-0.3,0-0.6-0.1-1.1c0-1-0.1-2.4-0.1-4.1c0-1.8-0.1-4-0.2-6.5c-0.1-2.5-0.2-5.4-0.4-8.6
					c-0.3-6.4-0.8-14-1.5-22.5c-0.7-8.5-1.6-17.7-2.7-27.5c-1.1-9.7-2.4-19-3.7-27.4c-1.3-8.4-2.5-15.9-3.7-22.2
					c-0.6-3.2-1.1-6-1.6-8.5c-0.5-2.5-0.9-4.7-1.3-6.4c-0.3-1.7-0.6-3.1-0.8-4.1c-0.1-0.4-0.1-0.8-0.2-1.1
					C90.2,282.9,90.2,282.8,90.2,282.8z"/>
			</g>
		</g>
		<g>
			<path class="st10" d="M101.4,417.8c0,0-26-29.5-34.1-47.3l6.1-2.6c-4.4,0.7-8.9-1.2-12.4-4.1c-3.4-2.9-5.9-6.7-8.4-10.4l8-1.4
				c-7.3-2-13.7-7-17.5-13.6c9.5,1.6,18,6.8,25.1,13.3c5.7,5.3,10.6,11.4,15.2,17.6c2.3,3,4.3,6.3,5.9,9.7
				C93.7,388.1,101.4,406.9,101.4,417.8z"/>
		</g>
		<g>
			<g>
				<path class="st7" d="M157.7,307.3c0,0,0,0.1-0.1,0.3c-0.1,0.2-0.2,0.5-0.4,0.9c-0.4,0.8-0.9,1.9-1.6,3.3
					c-1.4,2.8-3.4,6.9-5.8,12.1c-2.4,5.1-5.2,11.2-8.1,18.1c-2.9,6.9-6.1,14.4-9.2,22.5c-3.1,8-5.9,15.8-8.3,22.8
					c-2.4,7.1-4.5,13.4-6.2,18.8c-1.7,5.4-3,9.8-3.9,12.8c-0.4,1.5-0.8,2.7-1,3.5c-0.1,0.4-0.2,0.7-0.3,0.9
					c-0.1,0.2-0.1,0.3-0.1,0.3c0,0,0-0.1,0.1-0.3c0.1-0.2,0.1-0.5,0.2-0.9c0.2-0.8,0.5-2,0.9-3.5c0.8-3.1,2.1-7.4,3.7-12.8
					c1.6-5.4,3.7-11.8,6.1-18.9c2.4-7.1,5.2-14.8,8.3-22.8c3.1-8,6.3-15.6,9.2-22.5c3-6.8,5.8-13,8.2-18c2.4-5.1,4.5-9.2,5.9-12
					c0.7-1.4,1.3-2.5,1.7-3.2c0.2-0.3,0.3-0.6,0.4-0.8C157.7,307.4,157.7,307.3,157.7,307.3z"/>
			</g>
		</g>
		<g>
			<g>
				<path class="st7" d="M103.6,430.4c0,0-0.1-0.2-0.1-0.5c-0.1-0.4-0.2-0.9-0.3-1.6c-0.1-0.7-0.2-1.5-0.4-2.5
					c-0.2-1-0.3-2.1-0.6-3.3c-0.5-2.4-1.1-5.3-2-8.4c-0.9-3.1-2-6.5-3.3-10c-1.3-3.5-2.8-6.8-4.2-9.7c-1.4-2.9-2.8-5.5-4.1-7.6
					c-0.6-1.1-1.2-2-1.7-2.8c-0.5-0.8-1-1.5-1.3-2.1c-0.3-0.5-0.6-1-0.8-1.3c-0.2-0.3-0.3-0.5-0.3-0.5c0,0,0.1,0.1,0.4,0.4
					c0.2,0.3,0.6,0.8,0.9,1.3c0.4,0.6,0.9,1.3,1.4,2.1c0.5,0.8,1.2,1.8,1.8,2.8c1.3,2.1,2.7,4.7,4.2,7.6c1.4,2.9,2.9,6.2,4.2,9.7
					c1.3,3.5,2.4,7,3.2,10.1c0.8,3.2,1.5,6,1.9,8.5c0.2,1.2,0.4,2.3,0.5,3.3c0.2,1,0.3,1.8,0.3,2.5c0.1,0.6,0.1,1.2,0.2,1.6
					C103.6,430.2,103.6,430.4,103.6,430.4z"/>
			</g>
		</g>
		<g>
			<rect x="81" y="423.5" class="st12" width="56.9" height="11.6"/>
		</g>
		<g>
			<polygon class="st13" points="86.4,435.1 92.6,474.1 126.9,474.1 132.7,435.1 			"/>
		</g>
		<g>
			<g>
				<path class="st7" d="M134.4,435.1c0,0.1-10.8,0.3-24,0.3c-13.3,0-24-0.1-24-0.3c0-0.1,10.8-0.3,24-0.3
					C123.6,434.8,134.4,434.9,134.4,435.1z"/>
			</g>
		</g>
	</g>
</g>
<g id="Character">
	<g>
		<g>
			<g>
				<g>
					<g>
						<g>
							<g>
								<g>
									<g>
										<g>
											<g>
												<path class="st9" d="M398.6,438.8l2.3,22.4c0,0-22,9.9-22,14.1l43.7-3l-2.2-35.1L398.6,438.8z"/>
											</g>
										</g>
									</g>
								</g>
							</g>
						</g>
					</g>
					<g class="st14">
						<g>
							<g>
								<g>
									<g>
										<g>
											<g>
												<path d="M398.6,438.8l2.3,22.4c0,0-22,9.9-22,14.1l43.7-3l-2.2-35.1L398.6,438.8z"/>
											</g>
										</g>
									</g>
								</g>
							</g>
						</g>
					</g>
					<g class="st15">
						<g>
							<g>
								<g>
									<g>
										<g>
											<g>
												<g>
													<path class="st1" d="M414.3,458.4c0.9,0.2,1.5,1.1,1.4,2c-0.1,0.9-1.1,1.5-1.9,1.4c-0.9-0.2-1.7-1.2-1.4-2.1
														c0.2-0.8,1.4-1.6,2.2-1.2"/>
												</g>
											</g>
										</g>
									</g>
								</g>
							</g>
						</g>
					</g>
					<g class="st15">
						<g>
							<g>
								<g>
									<g>
										<g>
											<g>
												<path class="st1" d="M422.5,472.3l-0.4-3.5l-41.7,4.2c0,0-1.9,1-1.6,2.3L422.5,472.3z"/>
											</g>
										</g>
									</g>
								</g>
							</g>
						</g>
					</g>
					<g>
						<g>
							<g>
								<g>
									<g>
										<g>
											<g>
												<g>
													<path class="st7" d="M400.2,461c0,0.2,1.1,0.2,2.2,0.9c1.1,0.6,1.7,1.5,1.9,1.4c0.2-0.1-0.2-1.3-1.5-2
														C401.4,460.5,400.1,460.8,400.2,461z"/>
												</g>
											</g>
										</g>
									</g>
								</g>
							</g>
						</g>
					</g>
					<g>
						<g>
							<g>
								<g>
									<g>
										<g>
											<g>
												<g>
													<path class="st7" d="M395.7,463.2c0,0.2,0.9,0.5,1.7,1.4c0.8,0.8,1.1,1.8,1.3,1.8c0.2,0,0.3-1.2-0.7-2.3
														C397,463,395.7,463,395.7,463.2z"/>
												</g>
											</g>
										</g>
									</g>
								</g>
							</g>
						</g>
					</g>
					<g>
						<g>
							<g>
								<g>
									<g>
										<g>
											<g>
												<g>
													<path class="st7" d="M393.5,468.9c0.2,0,0.4-1.1-0.2-2.2c-0.6-1.1-1.7-1.5-1.7-1.3c-0.1,0.2,0.6,0.8,1.1,1.7
														C393.1,468,393.3,468.9,393.5,468.9z"/>
												</g>
											</g>
										</g>
									</g>
								</g>
							</g>
						</g>
					</g>
					<g>
						<g>
							<g>
								<g>
									<g>
										<g>
											<g>
												<g>
													<path class="st7" d="M400.2,455.9c0.1,0.2,1.1-0.2,2.3-0.2c1.2,0,2.2,0.3,2.3,0.1c0.1-0.2-0.9-0.9-2.3-0.9
														C401,454.9,400.1,455.7,400.2,455.9z"/>
												</g>
											</g>
										</g>
									</g>
								</g>
							</g>
						</g>
					</g>
				</g>
				<g>
					<g>
						<g>
							<g>
								<g>
									<g>
										<g>
											<g>
												<path class="st7" d="M399.8,451.3c0,0.1,0.9,0.2,2.2-0.2c0.7-0.2,1.4-0.4,2.2-0.9c0.4-0.2,0.8-0.5,1.2-0.8
													c0.2-0.1,0.4-0.3,0.6-0.6c0.2-0.2,0.3-0.8,0-1.1c-0.2-0.3-0.7-0.4-1-0.4c-0.3,0-0.6,0.1-0.8,0.2
													c-0.5,0.2-0.9,0.3-1.3,0.6c-0.8,0.4-1.5,1-1.9,1.5c-0.9,1-1.2,1.8-1.2,1.9c0.1,0.1,0.5-0.6,1.5-1.5
													c0.5-0.4,1.1-0.9,1.9-1.2c0.4-0.2,0.8-0.3,1.2-0.5c0.5-0.2,0.8-0.2,1,0c0,0.1,0.1,0.1,0,0.2c-0.1,0.1-0.3,0.3-0.5,0.4
													c-0.4,0.3-0.7,0.5-1.1,0.7c-0.7,0.4-1.4,0.7-2.1,1C400.6,451.1,399.8,451.2,399.8,451.3z"/>
											</g>
										</g>
									</g>
								</g>
							</g>
						</g>
					</g>
				</g>
				<g>
					<g>
						<g>
							<g>
								<g>
									<g>
										<g>
											<g>
												<path class="st7" d="M400.1,451.6c0.1,0,0.4-0.8,0.4-2.2c0-0.7-0.1-1.5-0.5-2.4c-0.2-0.4-0.4-0.9-0.6-1.3
													c-0.3-0.4-0.6-1-1.5-1c-0.4,0-0.8,0.4-0.9,0.7c-0.1,0.3-0.1,0.6-0.2,0.8c0,0.5,0,1,0.1,1.5c0.2,0.9,0.6,1.7,1.1,2.2
													c0.9,1.1,1.8,1.3,1.8,1.2c0.1-0.1-0.7-0.5-1.4-1.5c-0.4-0.5-0.7-1.2-0.8-2c-0.1-0.4-0.1-0.8,0-1.3
													c0-0.5,0.2-0.9,0.4-0.8c0.2,0,0.6,0.3,0.8,0.7c0.3,0.4,0.5,0.8,0.6,1.1c0.3,0.8,0.5,1.5,0.6,2.2
													C400.2,450.8,400,451.6,400.1,451.6z"/>
											</g>
										</g>
									</g>
								</g>
							</g>
						</g>
					</g>
				</g>
			</g>
			<g>
				<g>
					<path class="st7" d="M394,278.6c0,0-21.5,83.2-22.1,91c-0.6,7.8,26.8,76.1,26.8,76.1l21.1-4c0,0-1.3-99.9-2-101.9
						c-0.7-2,5.4-51.1,5.4-51.1L394,278.6z"/>
				</g>
			</g>
			<g>
				<g>
					<g>
						<g>
							<g>
								<g>
									<g>
										<g>
											<g>
												<path class="st9" d="M408.3,439.8l0.2,22.6c0,0-22.8,7.8-23.2,12l43.7,0.5l1.1-34.5L408.3,439.8z"/>
											</g>
										</g>
									</g>
								</g>
							</g>
						</g>
					</g>
					<g class="st15">
						<g>
							<g>
								<g>
									<g>
										<g>
											<g>
												<g>
													<path class="st1" d="M422.1,460.8c0.8,0.3,1.4,1.2,1.2,2.1c-0.2,0.9-1.2,1.4-2,1.2c-0.8-0.2-1.6-1.4-1.2-2.2
														c0.3-0.8,1.5-1.4,2.3-1"/>
												</g>
											</g>
										</g>
									</g>
								</g>
							</g>
						</g>
					</g>
					<g class="st15">
						<g>
							<g>
								<g>
									<g>
										<g>
											<g>
												<path class="st1" d="M429,474.8l0-2.9l-41.9,0.3c0,0-2,0.8-1.8,2.2L429,474.8z"/>
											</g>
										</g>
									</g>
								</g>
							</g>
						</g>
					</g>
					<g>
						<g>
							<g>
								<g>
									<g>
										<g>
											<g>
												<g>
													<path class="st7" d="M407.8,462.1c0,0.2,1.1,0.3,2.1,1.1c1.1,0.7,1.6,1.6,1.8,1.5c0.2,0-0.1-1.3-1.4-2.2
														C409.1,461.7,407.8,461.9,407.8,462.1z"/>
												</g>
											</g>
										</g>
									</g>
								</g>
							</g>
						</g>
					</g>
					<g>
						<g>
							<g>
								<g>
									<g>
										<g>
											<g>
												<g>
													<path class="st7" d="M403.2,463.9c-0.1,0.2,0.9,0.6,1.6,1.5c0.7,0.9,0.9,1.9,1.1,1.9c0.2,0,0.4-1.2-0.5-2.3
														C404.4,463.8,403.2,463.7,403.2,463.9z"/>
												</g>
											</g>
										</g>
									</g>
								</g>
							</g>
						</g>
					</g>
					<g>
						<g>
							<g>
								<g>
									<g>
										<g>
											<g>
												<g>
													<path class="st7" d="M400.4,469.3c0.2,0.1,0.5-1,0-2.2c-0.5-1.2-1.5-1.7-1.6-1.5c-0.1,0.2,0.5,0.8,0.9,1.8
														C400.2,468.4,400.2,469.3,400.4,469.3z"/>
												</g>
											</g>
										</g>
									</g>
								</g>
							</g>
						</g>
					</g>
					<g>
						<g>
							<g>
								<g>
									<g>
										<g>
											<g>
												<g>
													<path class="st7" d="M408.3,457c0.1,0.2,1.1-0.1,2.3,0c1.2,0.1,2.1,0.5,2.3,0.3c0.1-0.2-0.8-1-2.2-1.1
														C409.2,456.2,408.2,456.8,408.3,457z"/>
												</g>
											</g>
										</g>
									</g>
								</g>
							</g>
						</g>
					</g>
				</g>
				<g class="st14">
					<g>
						<g>
							<g>
								<g>
									<g>
										<g>
											<polygon points="408.3,444.3 408.4,448.3 429.9,448.6 430,445 											"/>
										</g>
									</g>
								</g>
							</g>
						</g>
					</g>
				</g>
				<g>
					<g>
						<g>
							<g>
								<g>
									<g>
										<g>
											<g>
												<path class="st7" d="M408.4,452.4c0,0.1,0.8,0.2,2.2,0c0.7-0.1,1.5-0.3,2.3-0.6c0.4-0.2,0.8-0.4,1.3-0.6
													c0.2-0.1,0.4-0.2,0.7-0.5c0.2-0.2,0.4-0.8,0.1-1.1c-0.2-0.3-0.6-0.5-0.9-0.5c-0.3,0-0.6,0-0.8,0.1
													c-0.5,0.1-1,0.3-1.4,0.4c-0.8,0.4-1.5,0.8-2.1,1.3c-1,0.9-1.4,1.7-1.3,1.7c0.1,0.1,0.6-0.6,1.7-1.3
													c0.5-0.4,1.2-0.8,2-1.1c0.4-0.1,0.8-0.3,1.3-0.4c0.5-0.1,0.9-0.1,1,0.1c0,0.1,0,0.1-0.1,0.2c-0.1,0.1-0.3,0.2-0.5,0.4
													c-0.4,0.2-0.8,0.5-1.2,0.6c-0.8,0.4-1.5,0.6-2.1,0.8C409.2,452.3,408.4,452.3,408.4,452.4z"/>
											</g>
										</g>
									</g>
								</g>
							</g>
						</g>
					</g>
				</g>
				<g>
					<g>
						<g>
							<g>
								<g>
									<g>
										<g>
											<g>
												<path class="st7" d="M408.6,452.7c0.1,0,0.5-0.7,0.6-2.1c0.1-0.7,0-1.5-0.2-2.4c-0.1-0.4-0.3-0.9-0.5-1.3
													c-0.2-0.4-0.5-1-1.4-1.1c-0.4,0-0.8,0.3-0.9,0.6c-0.2,0.3-0.2,0.5-0.2,0.8c-0.1,0.5-0.1,1,0,1.5
													c0.1,0.9,0.5,1.7,0.9,2.3c0.8,1.2,1.7,1.4,1.7,1.4c0.1-0.1-0.7-0.5-1.3-1.6c-0.3-0.5-0.6-1.3-0.6-2.1
													c0-0.4,0-0.8,0.1-1.3c0.1-0.5,0.3-0.8,0.4-0.8c0.2,0,0.6,0.4,0.7,0.7c0.2,0.4,0.4,0.8,0.5,1.2c0.3,0.8,0.4,1.6,0.4,2.2
													C408.8,451.9,408.5,452.7,408.6,452.7z"/>
											</g>
										</g>
									</g>
								</g>
							</g>
						</g>
					</g>
				</g>
			</g>
			<g>
				<path class="st7" d="M447.9,278.6l-4-5.4l-49.1,1.4l7.1,87.4l4.4,84.3l25.5,0.9c1.3-16.3,0.8-49.7,0.8-49.7l1.8-14.4l6.5-50.6
					c0.5-2.1,2.3-12.9,4.2-21.5C446.1,306.2,450.1,293.3,447.9,278.6z"/>
			</g>
			<g>
				<g>
					<g>
						<path class="st9" d="M397.6,294.7c0,0,0,0.1,0,0.4c0,0.3,0,0.7,0,1.1c0,1-0.1,2.5-0.2,4.4c-0.1,1.9-0.2,4.3-0.3,7
							c-0.1,2.7-0.2,5.8-0.3,9.3c-0.2,6.9-0.3,15-0.3,24.1c0.1,9.1,0.3,19,0.8,29.5c0.5,10.5,1.3,20.4,2.2,29.4
							c0.5,4.5,0.9,8.8,1.5,12.8c0.3,2,0.5,3.9,0.8,5.8c0.3,1.9,0.5,3.6,0.8,5.3c0.5,3.4,1,6.5,1.4,9.1c0.4,2.7,0.8,5,1.2,6.9
							c0.3,1.9,0.6,3.3,0.8,4.3c0.1,0.5,0.1,0.9,0.2,1.1c0,0.3,0.1,0.4,0,0.4c0,0,0-0.1-0.1-0.4c-0.1-0.3-0.1-0.6-0.2-1.1
							c-0.2-1-0.5-2.5-0.9-4.3c-0.4-1.9-0.8-4.2-1.3-6.9c-0.5-2.7-1-5.7-1.5-9.1c-0.3-1.7-0.5-3.5-0.8-5.3c-0.3-1.9-0.5-3.8-0.8-5.8
							c-0.6-4-1-8.3-1.5-12.8c-0.9-9-1.7-19-2.3-29.4c-0.5-10.5-0.7-20.4-0.8-29.5c0-9.1,0.1-17.2,0.4-24.1c0.1-3.4,0.2-6.5,0.4-9.3
							c0.1-2.7,0.2-5.1,0.3-7c0.1-1.9,0.2-3.4,0.3-4.4c0-0.5,0.1-0.9,0.1-1.1C397.6,294.8,397.6,294.7,397.6,294.7z"/>
					</g>
				</g>
			</g>
		</g>
		<g>
			<g>
				<g>
					<g>
						<g>
							<g>
								<g>
									<path class="st0" d="M405.9,163.8c0.1-2.7-0.9-5.3-1.7-7.9c-0.9-2.6-1.6-5.4-0.8-8c0.9-3.3,3.9-5.6,5.5-8.6
										c1.6-3,1.7-6.6,2-10c0.3-3.4,0.9-7,3.1-9.6c2.9-3.3,10.4-3.8,13.9-1.3c0.5,19.5,5.2,39.2,1,58.2
										c-9.5,0.4-19.1-1.9-27.4-6.5C404.1,169.3,405.7,166.5,405.9,163.8z"/>
								</g>
							</g>
						</g>
						<g>
							<g>
								<g>
									<g>
										<g>
											<g>
												<path class="st16" d="M447.3,182.6l2.7-53.7c0.1-2.2-1.5-4-3.6-4.3l-21.9-6.2c-7.1-0.9-12,7.6-12.7,14.7
													c-0.7,7.9-1.3,17.5-0.5,23.4c1.5,11.9,10.6,13.7,10.6,13.7c0,11.7-0.2,12.6-0.2,12.6l4.5,9.2L447.3,182.6z"/>
											</g>
										</g>
									</g>
								</g>
							</g>
							<g>
								<g>
									<g>
										<g>
											<g>
												<g>
													<g>
														<g>
															<g>
																<g>
																	<g>
																		<g>
																			<g>
																				<g>
																					<g>
																						<g>
																							<g>
																								<g>
																									<g>
																										<g>
																											<g>
																												<path class="st7" d="M414.5,142.9c-0.1,0.8,0.6,1.5,1.4,1.6c0.8,0.1,1.6-0.5,1.6-1.3
																													c0.1-0.8-0.6-1.5-1.4-1.6C415.2,141.5,414.5,142.1,414.5,142.9z"/>
																											</g>
																										</g>
																									</g>
																								</g>
																							</g>
																						</g>
																					</g>
																				</g>
																			</g>
																		</g>
																	</g>
																</g>
															</g>
														</g>
													</g>
												</g>
											</g>
											<g>
												<g>
													<g>
														<g>
															<g>
																<g>
																	<g>
																		<g>
																			<g>
																				<g>
																					<g>
																						<g>
																							<g>
																								<g>
																									<g>
																										<g>
																											<g>
																												<g>
																													<path class="st7" d="M413.8,138.1c0.2,0.2,1.4-0.6,3-0.6c1.6,0,2.8,0.9,3,0.7c0.1-0.1-0.1-0.4-0.6-0.8
																														c-0.5-0.4-1.4-0.8-2.4-0.8c-1,0-1.9,0.3-2.4,0.7C413.9,137.7,413.7,138,413.8,138.1z"/>
																												</g>
																											</g>
																										</g>
																									</g>
																								</g>
																							</g>
																						</g>
																					</g>
																				</g>
																			</g>
																		</g>
																	</g>
																</g>
															</g>
														</g>
													</g>
												</g>
											</g>
										</g>
										<g>
											<g>
												<g>
													<g>
														<g>
															<g>
																<g>
																	<g>
																		<g>
																			<g>
																				<g>
																					<g>
																						<g>
																							<g>
																								<g>
																									<g>
																										<g>
																											<g>
																												<path class="st7" d="M428.3,143.3c-0.1,0.8,0.6,1.5,1.4,1.6c0.8,0.1,1.6-0.5,1.6-1.3
																													c0.1-0.8-0.6-1.5-1.4-1.6C429.1,141.9,428.4,142.5,428.3,143.3z"/>
																											</g>
																										</g>
																									</g>
																								</g>
																							</g>
																						</g>
																					</g>
																				</g>
																			</g>
																		</g>
																	</g>
																</g>
															</g>
														</g>
													</g>
												</g>
											</g>
											<g>
												<g>
													<g>
														<g>
															<g>
																<g>
																	<g>
																		<g>
																			<g>
																				<g>
																					<g>
																						<g>
																							<g>
																								<g>
																									<g>
																										<g>
																											<g>
																												<g>
																													<path class="st7" d="M429.8,138.9c0.2,0.2,1.4-0.6,3-0.6c1.6,0,2.8,0.9,3,0.7c0.1-0.1-0.1-0.4-0.6-0.8
																														c-0.5-0.4-1.4-0.8-2.4-0.8c-1,0-1.9,0.3-2.4,0.7C429.9,138.4,429.7,138.8,429.8,138.9z"/>
																												</g>
																											</g>
																										</g>
																									</g>
																								</g>
																							</g>
																						</g>
																					</g>
																				</g>
																			</g>
																		</g>
																	</g>
																</g>
															</g>
														</g>
													</g>
												</g>
											</g>
										</g>
										<g>
											<g>
												<g>
													<g>
														<g>
															<g>
																<g>
																	<g>
																		<g>
																			<g>
																				<g>
																					<g>
																						<g>
																							<g>
																								<g>
																									<g>
																										<g>
																											<g>
																												<path class="st7" d="M423.5,150.8c0-0.1-1-0.3-2.6-0.6c-0.4-0.1-0.8-0.1-0.9-0.4
																													c-0.1-0.3,0.1-0.7,0.3-1.2c0.4-1,0.9-2,1.3-3.1c1.8-4.5,3.2-8.2,3-8.2c-0.2-0.1-1.8,3.5-3.7,8
																													c-0.4,1.1-0.9,2.2-1.3,3.2c-0.2,0.5-0.5,1-0.3,1.6c0.1,0.3,0.4,0.5,0.7,0.6c0.3,0.1,0.5,0.1,0.7,0.1
																													C422.5,150.9,423.5,150.9,423.5,150.8z"/>
																											</g>
																										</g>
																									</g>
																								</g>
																							</g>
																						</g>
																					</g>
																				</g>
																			</g>
																		</g>
																	</g>
																</g>
															</g>
														</g>
													</g>
												</g>
											</g>
										</g>
										<g>
											<g>
												<g>
													<g>
														<g>
															<g>
																<g>
																	<g>
																		<g>
																			<g>
																				<g>
																					<g>
																						<g>
																							<g>
																								<g>
																									<g>
																										<g>
																											<path class="st17" d="M421.9,170.1c0,0,7.9,0.7,16-3.8c0,0-4.2,8.3-16,6.9L421.9,170.1z"/>
																										</g>
																									</g>
																								</g>
																							</g>
																						</g>
																					</g>
																				</g>
																			</g>
																		</g>
																	</g>
																</g>
															</g>
														</g>
													</g>
												</g>
											</g>
										</g>
										<g>
											<g>
												<g>
													<g>
														<g>
															<g>
																<g>
																	<g>
																		<g>
																			<g>
																				<g>
																					<g>
																						<g>
																							<g>
																								<g>
																									<g>
																										<g>
																											<path class="st17" d="M423.7,154.7c0.8-1.1,2.1-1.7,3.4-1.7c0.9,0.1,1.7,0.5,2.1,1.2
																												c0.4,0.8,0.4,1.9-0.1,2.6c-0.6,0.9-1.8,1.1-2.7,0.9c-0.9-0.2-1.7-0.9-2.4-1.6c-0.2-0.2-0.4-0.4-0.5-0.6
																												C423.4,155.3,423.4,155,423.7,154.7"/>
																										</g>
																									</g>
																								</g>
																							</g>
																						</g>
																					</g>
																				</g>
																			</g>
																		</g>
																	</g>
																</g>
															</g>
														</g>
													</g>
												</g>
											</g>
										</g>
										<g>
											<g>
												<g>
													<g>
														<g>
															<g>
																<g>
																	<g>
																		<g>
																			<g>
																				<g>
																					<g>
																						<g>
																							<g>
																								<g>
																									<g>
																										<g>
																											<g>
																												<path class="st7" d="M428.3,152.1c-0.3,0-0.3,1.7-1.9,3c-1.6,1.2-3.4,1-3.5,1.2c0,0.1,0.4,0.4,1.2,0.4
																													c0.8,0,1.9-0.2,2.9-0.9c0.9-0.7,1.4-1.8,1.5-2.5C428.6,152.5,428.4,152.1,428.3,152.1z"/>
																											</g>
																										</g>
																									</g>
																								</g>
																							</g>
																						</g>
																					</g>
																				</g>
																			</g>
																		</g>
																	</g>
																</g>
															</g>
														</g>
													</g>
												</g>
											</g>
										</g>
									</g>
								</g>
							</g>
							<g>
								<g>
									<g>
										<g>
											<g>
												<g>
													<g>
														<g>
															<g>
																<g>
																	<g>
																		<g>
																			<g>
																				<g>
																					<g>
																						<g>
																							<g>
																								<path class="st0" d="M429.3,132.1c0.1,0.4,1.8,0.3,3.7,0.6c1.9,0.2,3.4,0.9,3.7,0.5
																									c0.1-0.2-0.1-0.6-0.8-1.1c-0.6-0.4-1.6-0.9-2.7-1c-1.1-0.2-2.2,0-2.9,0.3
																									C429.6,131.6,429.2,131.9,429.3,132.1z"/>
																							</g>
																						</g>
																					</g>
																				</g>
																			</g>
																		</g>
																	</g>
																</g>
															</g>
														</g>
													</g>
												</g>
											</g>
										</g>
									</g>
								</g>
							</g>
							<g>
								<g>
									<g>
										<g>
											<g>
												<g>
													<g>
														<g>
															<g>
																<g>
																	<g>
																		<g>
																			<g>
																				<g>
																					<g>
																						<g>
																							<g>
																								<path class="st0" d="M414.5,132.5c0.3,0.4,1.4,0,2.8,0c1.4,0,2.5,0.3,2.8-0.1c0.1-0.2,0-0.6-0.5-0.9
																									c-0.5-0.4-1.3-0.7-2.2-0.7c-0.9,0-1.7,0.3-2.2,0.7C414.6,131.9,414.4,132.3,414.5,132.5z"/>
																							</g>
																						</g>
																					</g>
																				</g>
																			</g>
																		</g>
																	</g>
																</g>
															</g>
														</g>
													</g>
												</g>
											</g>
										</g>
									</g>
								</g>
							</g>
						</g>
						<g>
							<g>
								<g>
									<path class="st0" d="M421.9,117.6c2-4.9,6.4-5.3,11.1-5.8c4.7-0.5,11.7,1.4,15.6,4c3,2,6.5,4.5,8.6,7.3
										c2.1,2.7,3,5.8,4.3,8.9c2,4.8,1.9,10.2,2.2,15.4c0.4,6.5,1.4,13,3.1,19.3c0.6,2.3,1.2,5-2,6.3c-0.6,0.2-1.2,0.4-1.9,0.5
										c-5,0.6-9.8,2.2-15.4,2.6l-3.4,0c-4.3,0-6.6-2.8-6.4-6.3c0.4-10.7,5.7-28.2,6.2-31.6C444.1,138.1,445.9,114.5,421.9,117.6z
										"/>
								</g>
							</g>
						</g>
						<g>
							<g>
								<g>
									<path class="st0" d="M423.4,118.1c1.5,1.1,2.2,3,2.5,4.9c0.3,1.9,0.1,3.8,0.5,5.6c0.7,3.7,3.3,7,6.8,8.5
										c1.1,0.5,2.6,0.7,3.3-0.3c-0.1,2.6,1.5,5.2,4,6.2c1.8,0.7,3.7,0.6,5.6,1c1.8,0.4,3.8,1.7,3.9,3.6l0.8-13.1l-3.7-11.6
										l-11.4-6.8L423.4,118.1z"/>
								</g>
							</g>
						</g>
						<g>
							<g>
								<g>
									<g>
										<path class="st1" d="M443.6,139.8c0,0-0.4-0.2-1.1-0.9c-0.6-0.6-1.3-1.8-1.8-3.3c-0.5-1.5-0.6-3.5-0.8-5.6
											c-0.2-2.1-0.3-4.5-0.8-6.9c-0.6-2.4-1.6-4.6-3.1-6.2c-0.7-0.8-1.6-1.4-2.5-1.8c-0.9-0.4-1.8-0.6-2.6-0.6
											c-1.6-0.1-2.9,0.4-3.7,0.9c-0.2,0.1-0.4,0.2-0.5,0.4c-0.1,0.1-0.2,0.2-0.3,0.3c-0.2,0.2-0.2,0.3-0.2,0.3
											c0,0,0.3-0.4,1.1-0.9c0.8-0.5,2-0.9,3.6-0.8c1.6,0.1,3.5,0.8,4.9,2.4c1.5,1.5,2.5,3.7,3,6.1c0.5,2.4,0.6,4.8,0.8,6.9
											c0.2,2.1,0.4,4.1,0.8,5.6c0.5,1.6,1.2,2.7,1.9,3.3C443.1,139.6,443.6,139.8,443.6,139.8z"/>
									</g>
								</g>
							</g>
						</g>
						<g>
							<g>
								<g>
									<g>
										<path class="st9" d="M453.4,138.2c0,0-0.7,0-1.7-0.4c-1.1-0.4-2.4-1.5-3.6-3.2c-0.6-0.8-1.2-1.8-1.7-2.9
											c-0.5-1.1-0.8-2.4-0.9-3.7c-0.2-1.4-0.2-2.8-0.4-4.3c-0.1-0.7-0.2-1.5-0.4-2.3c-0.2-0.8-0.4-1.5-0.7-2.2
											c-1.3-2.9-3.8-5.1-6.3-6.1c-2.6-1.1-5.2-1-7.2-0.5c-2,0.5-3.5,1.4-4.4,2.1c-0.9,0.7-1.3,1.2-1.3,1.2c0,0,0,0,0.1-0.1
											c0.1-0.1,0.2-0.1,0.3-0.2c0.1-0.1,0.2-0.2,0.4-0.4c0.2-0.1,0.4-0.3,0.6-0.5c0.9-0.7,2.4-1.6,4.4-2.1
											c2-0.5,4.6-0.5,7.1,0.5c2.5,1,4.9,3.2,6.2,6c0.3,0.7,0.6,1.5,0.7,2.2c0.2,0.7,0.3,1.5,0.4,2.2c0.2,1.5,0.2,2.9,0.4,4.3
											c0.2,1.4,0.5,2.7,1,3.8c0.5,1.1,1.1,2.1,1.7,3c1.2,1.7,2.6,2.8,3.7,3.2c0.5,0.2,1,0.3,1.3,0.3c0.1,0,0.3,0,0.3,0
											C453.4,138.2,453.4,138.2,453.4,138.2z"/>
									</g>
								</g>
							</g>
						</g>
						<g>
							<g>
								<g>
									<g>
										<path class="st9" d="M436.5,136.8c0,0,0,0,0,0.1c0,0.1,0,0.2,0,0.3c0,0.1,0,0.3,0.1,0.5c0,0.2,0.1,0.5,0.1,0.7
											c0.2,0.5,0.3,1.2,0.8,1.9c0.4,0.7,1,1.4,1.8,2c1.6,1.2,4.1,1.8,6.8,1.7c1.4-0.1,2.8-0.3,4.2-0.7c1.4-0.4,2.9-0.9,4.3-1.7
											l0.3-0.2l-0.3,0c-1.7-0.2-3.3-0.7-4.9-1.5l-0.1,0l-0.1,0.2c3.7,0.6,7.4-0.2,10.2-1.8l0.2-0.1l-0.2-0.1
											c-2.4-0.8-4.5-1.8-6.1-3.1c-1.6-1.3-2.7-2.8-3.2-4.2c-0.5-1.4-0.5-2.6-0.5-3.4c0-0.4,0.1-0.7,0.1-0.9c0-0.1,0-0.2,0-0.2
											c0-0.1,0-0.1,0-0.1c0,0,0,0,0,0.1c0,0.1,0,0.1,0,0.2c0,0.2-0.1,0.5-0.1,0.9c0,0.8,0,2,0.5,3.5c0.5,1.4,1.6,3,3.2,4.3
											c1.6,1.3,3.7,2.4,6.1,3.1l0-0.2c-2.8,1.6-6.4,2.4-10.1,1.8l-0.8-0.1l0.7,0.3l0.1,0c1.6,0.8,3.3,1.3,5,1.5l0-0.2
											c-1.4,0.8-2.8,1.3-4.2,1.7c-1.4,0.4-2.8,0.6-4.2,0.7c-2.7,0.1-5.1-0.4-6.7-1.6c-0.8-0.6-1.4-1.3-1.8-2
											c-0.4-0.7-0.6-1.3-0.8-1.8c-0.1-0.3-0.1-0.5-0.2-0.7c0-0.2-0.1-0.4-0.1-0.5c0-0.1,0-0.2-0.1-0.3
											C436.5,136.8,436.5,136.8,436.5,136.8z"/>
									</g>
								</g>
							</g>
						</g>
						<g>
							<g>
								<g>
									<g>
										<path class="st9" d="M460.8,169.1c0.1,0-0.7-6.3-1.6-14.1c-0.9-7.8-1.8-14.1-1.8-14.1c-0.1,0,0.7,6.3,1.6,14.1
											C459.9,162.8,460.7,169.1,460.8,169.1z"/>
									</g>
								</g>
							</g>
						</g>
						<g>
							<g>
								<g>
									<g>
										<path class="st1" d="M454.1,170.7c0,0,0-0.1,0-0.3c0-0.2,0-0.5,0.1-0.8c0.1-0.7,0.1-1.6,0.2-2.8c0.1-2.4,0.3-5.7,0.2-9.3
											c0-3.6-0.1-6.9-0.3-9.3c-0.1-1.2-0.1-2.2-0.2-2.8c0-0.3-0.1-0.6-0.1-0.8c0-0.2,0-0.3,0-0.3c0,0,0,0.1,0,0.3
											c0,0.2,0,0.5,0,0.8c0,0.7,0.1,1.6,0.1,2.8c0.1,2.4,0.2,5.7,0.2,9.3c0,3.6-0.1,6.9-0.2,9.3c-0.1,1.2-0.1,2.1-0.1,2.8
											c0,0.3,0,0.6,0,0.8C454.1,170.6,454.1,170.7,454.1,170.7z"/>
									</g>
								</g>
							</g>
						</g>
					</g>
				</g>
			</g>
			<g>
				<g>
					<path class="st17" d="M436.5,142c0.1,0.1-0.3,0.4-0.8,0.7c-0.5,0.2-1,0.3-1,0.2c-0.1-0.1,0.3-0.4,0.8-0.7
						C436,141.9,436.5,141.8,436.5,142z"/>
				</g>
			</g>
			<g>
				<g>
					<path class="st17" d="M431.8,152.7c-0.1,0-0.3-0.6-0.7-1.2c-0.4-0.6-1-0.9-1-1c0-0.1,0.8-0.1,1.4,0.7
						C432,151.9,431.9,152.7,431.8,152.7z"/>
				</g>
			</g>
			<g>
				<g>
					<path class="st17" d="M412.9,143c-0.1,0.1-0.3,0.1-0.5,0.1c-0.2,0-0.4-0.1-0.4-0.3c0-0.1,0.2-0.3,0.5-0.3
						C412.8,142.7,412.9,142.9,412.9,143z"/>
				</g>
			</g>
			<g>
				<g>
					<path class="st17" d="M413.1,144c0.1,0.1,0,0.3-0.1,0.4c-0.1,0.1-0.3,0-0.4-0.1c-0.1-0.1,0-0.3,0.1-0.4
						C412.9,143.9,413.1,143.9,413.1,144z"/>
				</g>
			</g>
			<g>
				<g>
					<path class="st17" d="M435.9,176.4c-0.1,0-0.3-0.2-0.3-0.7c0-0.2,0-0.5,0.1-0.8c0.1-0.3,0.3-0.5,0.2-0.7
						c-0.1-0.2-0.4-0.4-0.5-0.7c-0.1-0.3-0.2-0.6-0.1-0.9c0.1-0.5,0.3-0.7,0.4-0.7c0.1,0,0,0.3,0,0.7c0,0.2,0.1,0.4,0.2,0.6
						c0.1,0.2,0.3,0.3,0.6,0.7c0.1,0.2,0.1,0.5,0,0.7c-0.1,0.2-0.2,0.3-0.2,0.4c-0.1,0.2-0.2,0.5-0.2,0.6
						C435.9,176.1,435.9,176.3,435.9,176.4z"/>
				</g>
			</g>
		</g>
		<g>
			<g>
				<g>
					<g>
						<path class="st18" d="M448.1,176.5l-26.4,4.6c0,0-17.6,19.4-22.9,36.9c-3.1,10.3-10.9,56.5-13.4,71.7
							c-0.5,2.8,1.1,5.6,3.8,6.5l61.9,1.1c0,0,0,0,0.8-6.1c1.4-10.5-7.5-28.2-7.5-28.2l11.6-57.3
							C459.3,191.4,448.1,176.5,448.1,176.5z"/>
					</g>
				</g>
				<g class="st14">
					<path d="M428.5,252.3c-6.1,3.3-36.8,6.8-36.8,6.8s13.7,6.4,26.3,5c12.6-1.5,17.1-4.4,19.9-10.8c2.8-6.4,8.1-28.9,8.1-28.9
						S434.6,249,428.5,252.3z"/>
				</g>
			</g>
			<g>
				<g>
					<g>
						<g>
							<g>
								<path class="st17" d="M357.1,263.9c0.4,0.1,0.9,0.1,1.3,0.2c0.1,0,0.3,0,0.4,0c0.2-0.1,0.2-0.3,0.2-0.5
									c-0.1-0.6-0.5-1.2-1-1.6c-0.5-0.4-1.1-0.6-1.8-0.7c-0.3,0-0.6-0.1-0.9,0.1c-0.2,0.2-0.3,0.5-0.4,0.8
									c-0.1,0.4-0.1,0.8-0.2,1.2c0,0.2,0,0.4,0.1,0.6c0.1,0.1,0.3,0.1,0.4,0.1C355.9,264,356.5,263.8,357.1,263.9"/>
							</g>
						</g>
					</g>
					<g>
						<g>
							<path class="st16" d="M354.1,245.4c-1.2,0.7-7.1,3.7-7.1,3.7l-7,7.3c0,0,1.9,2.2,3.5,0.8c1.6-1.3,3.4-2.6,3.4-2.6l3.3-1.6
								c0,0-2.4,5.5-2.1,6.1c0.3,0.6,1,1,1,1s0.2,1.9,1.8,3.1l2.6,3.8l5.7,0.2c0,0-0.1-1.4-1-2.3c-1-0.9-2.9-0.6-2.9-0.6l-0.1-2.2
								l1.1-1.4c0,0,10.7-3.3,12.7-4.8l2.9,0.4l0.9-12.7C372.8,243.6,355.4,244.7,354.1,245.4z"/>
						</g>
					</g>
					<g>
						<g>
							<g>
								<g>
									<path class="st17" d="M353.9,257.2c0.1,0.1-0.7,1.3-1.5,2.9c-0.8,1.6-1.2,3-1.4,3c-0.1,0,0.1-1.5,0.9-3.2
										C352.8,258.2,353.9,257.1,353.9,257.2z"/>
								</g>
							</g>
						</g>
					</g>
					<g>
						<g>
							<g>
								<g>
									<path class="st17" d="M352.7,253.6c0.1,0.1-0.8,1.4-1.7,3.2c-0.9,1.7-1.5,3.2-1.6,3.2c-0.1,0,0.3-1.6,1.2-3.4
										C351.5,254.8,352.6,253.6,352.7,253.6z"/>
								</g>
							</g>
						</g>
					</g>
					<g>
						<g>
							<g>
								<g>
									<path class="st17" d="M352.7,247.4c0.1,0.1-0.5,1.4-1.1,3c-0.6,1.7-1.4,2.9-1.5,2.9c-0.1-0.1,0.4-1.4,1.1-3
										C351.8,248.6,352.5,247.3,352.7,247.4z"/>
								</g>
							</g>
						</g>
					</g>
				</g>
				<g>
					<g>
						<g>
							<g>
								<g>
									<g>
										<g>
											<path class="st18" d="M430.7,182.4c2.3-2.8,3.5-2,9.5-3.2c1.8-0.3,3.7,0.3,5.7,1.4c5.6,3.2,9.2,9.1,9.8,15.5l-0.4,7.7
												l-18.9,44c0,0-3.5,9.8-19.5,10c-3,0-14.3,0.9-25.1,1.2c-10.4,0.3-20.3,0-20.3,0l-0.5-17.4l41.8-8.1L430.7,182.4z"/>
										</g>
									</g>
								</g>
							</g>
						</g>
					</g>
				</g>
				<g>
					<g>
						<g>
							<path class="st7" d="M428.5,189.2c0,0,0,0.1-0.1,0.2c-0.1,0.2-0.1,0.4-0.2,0.6c-0.2,0.6-0.5,1.4-0.8,2.5
								c-0.8,2.2-1.8,5.3-3.1,9.1c-2.7,7.7-6.4,18.2-10.5,29.9c-0.2,0.7-0.5,1.3-0.7,1.9l0,0.1l-0.1,0c-11.7,2.3-22.1,4.3-29.7,5.8
								c-3.8,0.7-6.8,1.3-8.9,1.7c-1,0.2-1.8,0.3-2.4,0.4c-0.3,0-0.5,0.1-0.6,0.1c-0.1,0-0.2,0-0.2,0c0,0,0.1,0,0.2-0.1
								c0.2,0,0.4-0.1,0.6-0.1c0.6-0.1,1.4-0.3,2.4-0.5c2.1-0.4,5.2-1.1,8.9-1.8c7.6-1.5,18-3.6,29.7-6l-0.2,0.2
								c0.2-0.6,0.4-1.3,0.7-1.9c4.1-11.6,7.9-22.1,10.6-29.8c1.4-3.8,2.5-6.8,3.3-9c0.4-1,0.7-1.8,0.9-2.4c0.1-0.3,0.2-0.5,0.2-0.6
								C428.4,189.2,428.5,189.2,428.5,189.2z"/>
						</g>
					</g>
				</g>
			</g>
			<g>
				<g>
					<path class="st7" d="M450.5,214.4c0,0,0,0.1-0.1,0.3c-0.1,0.2-0.2,0.4-0.3,0.7c-0.3,0.7-0.6,1.6-1.1,2.8c-1,2.5-2.4,6-4.2,10.4
						c-1.8,4.4-3.9,9.6-6.5,15.3c-0.6,1.4-1.3,2.9-2.2,4.3c-0.9,1.4-1.9,2.8-3.1,4c-1.3,1.2-2.7,2.2-4.3,3c-0.8,0.4-1.6,0.8-2.4,1.1
						l-1.2,0.5l-1.3,0.4c-1.8,0.4-3.6,0.6-5.3,0.7c-1.8,0.2-3.5,0.3-5.2,0.4c-3.4,0.2-6.7,0.3-9.8,0.4c-6.3,0.2-11.9,0.2-16.7,0.2
						c-4.7,0-8.6,0-11.2-0.1c-1.3,0-2.3-0.1-3.1-0.1c-0.3,0-0.6,0-0.8,0c-0.2,0-0.3,0-0.3,0c0,0,0.1,0,0.3,0c0.2,0,0.5,0,0.8,0
						c0.7,0,1.8,0,3.1,0c2.7,0,6.5-0.1,11.2-0.1c4.7-0.1,10.4-0.1,16.6-0.3c3.1-0.1,6.4-0.2,9.8-0.4c1.7-0.1,3.4-0.2,5.2-0.4
						c1.7-0.2,3.5-0.4,5.3-0.7l1.3-0.3l1.2-0.5c0.8-0.4,1.6-0.7,2.4-1.1c1.5-0.8,3-1.8,4.2-2.9c1.2-1.2,2.2-2.5,3.1-3.9
						c0.8-1.4,1.5-2.9,2.1-4.3c2.6-5.7,4.7-10.9,6.6-15.3c1.8-4.3,3.3-7.9,4.3-10.4c0.5-1.2,0.9-2.1,1.2-2.8
						c0.1-0.3,0.2-0.5,0.3-0.7C450.5,214.5,450.5,214.4,450.5,214.4z"/>
				</g>
			</g>
		</g>
	</g>
</g>
</svg>
