<?xml version="1.0" encoding="utf-8"?>
<!-- Generator: Adobe Illustrator 24.1.1, SVG Export Plug-In . SVG Version: 6.00 Build 0)  -->
<svg version="1.1" id="_x2018_лой_x5F_1" xmlns="http://www.w3.org/2000/svg" xmlns:xlink="http://www.w3.org/1999/xlink"
	 x="0px" y="0px" viewBox="0 0 2800 2000" style="enable-background:new 0 0 2800 2000;" xml:space="preserve">
<style type="text/css">
	.st0{fill:#EBF3FA;}
	.st1{fill:#CDE0FB;}
	.st2{fill:#DFEBFD;}
	.st3{fill:#5295BC;}
	.st4{fill:#145373;}
	.st5{display:none;}
	.st6{display:inline;}
	.st7{fill:#FFEDDC;}
	.st8{opacity:0.7;}
	.st9{fill:#81569C;}
	.st10{fill:#4567AB;}
	.st11{fill:#7999E2;}
	.st12{fill:#AEC3FF;}
	.st13{fill:#233862;}
	.st14{fill:#FFB27D;}
	.st15{fill:#2B478B;}
	.st16{fill:#ED975D;}
	.st17{fill:#95B3EF;}
	.st18{fill:#5560A6;}
	.st19{fill:#ED7D2B;}
	.st20{fill:#FFFFFF;}
	.st21{fill:#1B3770;}
	.st22{fill:#E8C2A3;}
	.st23{fill:#6158A0;}
	.st24{fill:#ED985F;}
	.st25{fill:#1E3D7C;}
	.st26{fill:#EA642F;}
	.st27{fill:#015F74;}
	.st28{fill:#FCECDB;}
	.st29{fill:#EAC5A4;}
	.st30{fill:#EFDECE;}
	.st31{fill:#09B0E6;}
	.st32{fill:#365CA4;}
	.st33{fill:#2F6CB0;}
	.st34{fill:#1E4772;}
	.st35{fill:#6DC1C6;}
	.st36{fill:#1976B9;}
	.st37{fill:#A6C7ED;}
	.st38{fill:#E3F0FF;}
	.st39{fill:#2E3552;}
	.st40{fill:#E0DFD8;}
	.st41{fill:#1C3D72;}
	.st42{fill:#AFCDFB;}
	.st43{fill:#FCA56B;}
	.st44{fill:#163560;}
	.st45{fill:#1F4D84;}
	.st46{fill:#0596BF;}
	.st47{opacity:0.5;}
	.st48{fill:#B3CFF9;}
	.st49{fill:#699DEE;}
	.st50{fill:#4B87DD;}
</style>
<path class="st0" d="M308.3,1836.6c0,0-174.9-220.3-62.4-533.8c94.8-264.1,365.4-94.3,291.3-428.2
	c-67.2-302.8,1.2-565.3,626.2-701.9C1566.8,84.5,2196.3,54.1,2055,721.6c-50.3,237.6,756.6,40.1,418.3,1115H308.3z"/>
<path class="st1" d="M2058.2,1539.1c-10.8-58.8-109.2-48.9-109.2-48.9s-74.2,95.1-93.5,95.9c-19.4,0.8,47.6-93.7,47.6-93.7
	c-36.8-6.7-135.2,30.9-135.2,30.9s-3.8,117.8-22.7,113.8c-19-4,8.7-104.1,8.7-104.1c-36.8,7.8-73.8,46.9-73.8,46.9
	c-47.6,64.7,38,122.5,38,122.5s-2.2,40.8-31.2,85.4l0,0c0,0-6.4,8.1-13.4,22.3l9.8,0.8c1-2.6,2.1-5,3.3-7.4c0,0,0,0,0,0
	c0,0,0-0.1,0.1-0.1c0.8-1.5,1.9-3.5,3.4-6.1c0,0,0,0,0,0c0,0,0,0,0,0c3.5-5.6,5.9-9.8,7.4-12.8c0,0,0,0,0,0
	c10.5-17.6,25.4-40.5,34.4-44.8c0,0-1-1.6-1.7-4.7c0.5,1.5,1.1,3,1.7,4.7c13.8,37.3,97.1,50.3,144.5,44.6c47.5-5.7,28.2-20.6,4.9-44
	s-76.5-22.2-91.4-31.9s8.6-16.2,39.5-11.2c30.9,5,43.9,37.4,93.8,46.4c49.9,9,96-82.4,96-82.4c-35.6,7.9-96.3-16.4-97.7-28.6
	c-1.4-12.2,90.7-3.3,105.3-5.7C2041.5,1624.5,2069,1597.9,2058.2,1539.1z"/>
<path class="st1" d="M315,1699.5c-46.3-70.3,63.6-156.3,63.6-156.3s168.3,24.4,188.8,6.4c20.5-18.1-139.8-49-139.8-49
	c31-42.7,167.8-100.4,167.8-100.4s118.8,116.3,134.2,93.7c15.4-22.6-110.4-97.6-110.4-97.6c45.1-28,120.9-24.3,120.9-24.3
	c111.6,19.5,80.8,161.8,80.8,161.8s42,39.4,115.1,56.5h0c0,0,14.5,2.1,35.4,9.7l-9.2,10.4c-3.5-1.6-7-3.1-10.5-4.3c0,0,0,0-0.1,0
	c-0.1,0-0.1,0-0.2-0.1c-2.2-0.7-5.4-1.7-9.3-2.9c0,0,0,0,0,0c0,0,0,0,0,0c-9-2.3-15.5-4.2-20-5.8c0,0,0,0,0,0
	c-27.9-7.7-128.6,133.8-182.5,174.4c-53.9,40.5-48.8,6.6-47.9-40.1c0.9-46.7,56.2-97.2,61.9-121.6c5.7-24.4-24.5-8.1-51.1,27.2
	c-26.6,35.2-8.2,80.9-50.2,138.7c-42,57.8-178.2,9.8-178.2,9.8c44-26.7,82-110.7,71.5-124.4c-10.4-13.8-95.6,85.1-112.8,97
	C415.4,1770.1,361.4,1769.9,315,1699.5z"/>
<g>
	<path class="st1" d="M1710.3,939.4c0,0,95.1-193.8,148.2-176.6C1911.7,780,1710.3,939.4,1710.3,939.4z"/>
	<path class="st1" d="M1641.9,1027.1c0,0,227.7-223.2,316.2-182.5s-53.9,84.4-108.3,96.3C1795.5,952.8,1641.9,1027.1,1641.9,1027.1z
		"/>
</g>
<g>
	<path class="st2" d="M942.9,984.5c0,0-95.1-193.8-148.2-176.6C741.5,825,942.9,984.5,942.9,984.5z"/>
	<path class="st2" d="M1011.2,1072.2c0,0-227.7-223.2-316.2-182.5c-88.5,40.7,53.9,84.4,108.3,96.3
		C857.6,997.8,1011.2,1072.2,1011.2,1072.2z"/>
</g>
<path class="st2" d="M768.8,473.9c32.5-72.6,156.8-28.7,156.8-28.7s66,146.5,90.8,153.7c24.8,7.2-32-136.3-32-136.3
	c49.8,3,165.2,82.8,165.2,82.8s-32.3,153.7-6.5,154.5c25.8,0.8,21.7-137.5,21.7-137.5c45.2,21.7,80.7,84,80.7,84
	c41.1,98.8-87.9,146.5-87.9,146.5s-10.1,53.5,13.4,120.4l0,0c0,0,5.7,12.6,10.3,33.1l-12.9-2c-0.5-3.6-1.1-7.2-1.9-10.6
	c0,0,0,0,0-0.1c0,0,0-0.1,0-0.1c-0.6-2.1-1.4-5.2-2.4-8.9c0,0,0,0,0,0c0,0,0,0,0,0c-2.7-8.4-4.5-14.5-5.5-18.9c0,0,0,0,0,0
	c-8-26.1-20.1-60.5-30.4-68.9c0,0,1.7-1.8,3.7-5.5c-1.2,1.8-2.4,3.6-3.7,5.5c-29.6,43.9-141.5,34.4-201.2,12
	c-59.7-22.4-30-35.5,7.6-58.5c37.7-23,106-4.6,128.3-12.4c22.3-7.8-6-23.6-47.6-27c-41.6-3.3-68.6,34.5-136,30.4
	c-67.4-4.1-98.3-137-98.3-137c43.6,21.5,129.8,9.1,135.5-6.2c5.7-15.3-116.3-32.9-134.6-40.7C763.4,589.8,736.2,546.6,768.8,473.9z"
	/>
<path class="st3" d="M1775.2,729.4v1085.4c0,10.5-8.5,19.1-19.1,19.1H919.7c-10.5,0-19.1-8.5-19.1-19.1V729.4
	c0-10.5,8.5-19.1,19.1-19.1h836.4C1766.6,710.3,1775.2,718.9,1775.2,729.4z"/>
<path class="st4" d="M990.8,710.3v1123.5h-71.1c-10.5,0-19.1-8.5-19.1-19.1V729.4c0-10.5,8.5-19.1,19.1-19.1H990.8z"/>
<g class="st5">
	<g class="st6">
		<path class="st7" d="M1255.4,1021.5V983h14.8v38.1c0,11,5.5,16.6,14.5,16.6c9,0,14.5-5.5,14.5-16.2V983h14.8v38
			c0,20.4-11.4,30.4-29.5,30.4C1266.4,1051.4,1255.4,1041.3,1255.4,1021.5z"/>
		<path class="st7" d="M1324.5,1040.5l8.8-10.5c6.1,5,12.4,8.2,20.1,8.2c6.1,0,9.7-2.4,9.7-6.5c0-3.8-2.3-5.7-13.6-8.6
			c-13.6-3.5-22.3-7.2-22.3-20.8c0-12.2,9.8-20.3,23.6-20.3c9.8,0,18.2,3.1,25,8.6l-7.7,11.2c-6-4.1-11.8-6.6-17.5-6.6
			c-5.7,0-8.7,2.6-8.7,6.1c0,4.4,2.9,5.9,14.5,8.9c13.7,3.6,21.4,8.5,21.4,20.4c0,13.4-10.2,20.9-24.7,20.9
			C1342.9,1051.3,1332.6,1047.8,1324.5,1040.5z"/>
		<path class="st7" d="M1390.7,983h50.8v13.2h-36.1v13.7h31.8v13.2h-31.8v14.1h36.6v13.2h-51.3V983z"/>
		<path class="st7" d="M1455.2,983h30.8c8.6,0,15.2,2.4,19.6,6.8c3.8,3.8,5.8,9,5.8,15.6c0,10.9-5.9,17.7-14.4,20.9l16.5,24.1h-17.3
			l-14.6-21.6H1470v21.6h-14.8V983z M1485,1015.7c7.2,0,11.4-3.8,11.4-9.7c0-6.4-4.4-9.6-11.6-9.6H1470v19.3H1485z"/>
	</g>
	<g class="st6">
		<path class="st7" d="M1169.3,1084.1h16l17.7,28.5l17.7-28.5h16v67.4h-14.7v-44l-19,28.8h-0.4l-18.8-28.5v43.7h-14.5V1084.1z"/>
		<path class="st7" d="M1275.9,1083.6h13.7l28.9,67.8h-15.5l-6.2-15.1h-28.5l-6.2,15.1H1247L1275.9,1083.6z M1291.5,1123.3
			l-8.9-21.8l-8.9,21.8H1291.5z"/>
		<path class="st7" d="M1328.8,1084.1h13.7l31.6,41.5v-41.5h14.6v67.4H1376l-32.6-42.8v42.8h-14.6V1084.1z"/>
		<path class="st7" d="M1403.7,1122.6v-38.5h14.8v38.1c0,11,5.5,16.6,14.5,16.6s14.5-5.5,14.5-16.2v-38.6h14.8v38
			c0,20.4-11.5,30.4-29.5,30.4S1403.7,1142.4,1403.7,1122.6z"/>
		<path class="st7" d="M1498.2,1083.6h13.7l28.9,67.8h-15.5l-6.2-15.1h-28.5l-6.2,15.1h-15.1L1498.2,1083.6z M1513.8,1123.3
			l-8.9-21.8l-8.9,21.8H1513.8z"/>
		<path class="st7" d="M1551.1,1084.1h14.8v53.9h33.6v13.5h-48.4V1084.1z"/>
	</g>
</g>
<g>
	<g class="st8">
		<path class="st9" d="M1189,1424.3l15.3-8.4c1.3-0.7,2.8-0.6,4,0.2c1.5,1.1,3.1,2.1,4.7,3c3,1.8,6.1,3.3,9.3,4.5
			c1.5,0.6,2.5,2,2.5,3.5l0.3,18.2c0,1.9,1.6,3.6,3.5,3.7l16.6,1.1c1.9,0.1,3.5-1.2,3.9-3l2.9-16.5c0.3-1.6,1.6-2.9,3.2-3.1
			c7-0.9,13.9-3,20.4-6.1c1.6-0.8,3.5-0.3,4.6,1l6.6,7.8c1.3,1.5,3.4,1.8,5.1,0.7l13.8-9.2c0.3-0.2,0.5-0.4,0.7-0.6
			c1-1.2,1.3-2.9,0.5-4.3l-6.3-11.4l-1.5-2.8c1.9-2.4,3.7-5.1,5.3-7.8c2.1-3.7,3.9-7.6,5.3-11.4c0.5-1.5,1.9-2.5,3.5-2.5l14.7-0.3
			c2,0,3.7-1.6,3.8-3.6l0.9-12.7l0.2-3.6c0.1-2-1.2-3.8-3.2-4.1l-13.8-2.5c-1.6-0.3-2.9-1.5-3.1-3.1c-0.8-4.7-2-9.4-3.8-13.8
			c-0.1-0.4-0.3-0.8-0.4-1.1c-0.1-0.1-0.1-0.3-0.1-0.4c-0.4-1.5,0-3.1,1.2-4l12.7-10.7c0.2-0.1,0.3-0.3,0.4-0.4
			c1.1-1.3,1.3-3.2,0.3-4.7l-9.2-13.7c-1.1-1.7-3.3-2.2-5.1-1.2l-15.9,8.8c-1.3,0.8-3,0.6-4.2-0.4c-2.6-2.1-5.5-4.1-8.5-5.8
			c-1.6-0.9-3.3-1.8-4.9-2.6c-1.3-0.6-2.2-2-2.2-3.5l-0.3-17.5c0-1.9-1.5-3.5-3.5-3.7l-16.5-1.1c-2-0.1-3.8,1.2-4.1,3.2l-2.3,13.1
			c-0.3,1.8-1.8,3.1-3.5,3.2c-6.9,0.4-13.8,1.9-20.3,4.4c-1.5,0.6-3.3,0.2-4.4-1.1l-9.6-11.5c-1.3-1.5-3.5-1.8-5.2-0.7l-13.7,9.1
			c-1.6,1.1-2.2,3.3-1.2,5l0.4,0.7l7.3,13.3c0.8,1.4,0.6,3.1-0.4,4.4l0,0c-2.5,3-4.8,6.2-6.8,9.7c-1.1,1.9-2,3.8-2.9,5.7
			c-0.6,1.3-1.9,2.2-3.4,2.2l-14.9,0.3c-2,0-3.7,1.6-3.9,3.7l-1.1,16.4c0,0.5,0,0.9,0.1,1.3c0.4,1.4,1.6,2.4,3,2.7l11,1.9
			c1.4,0.3,2.5,1.2,2.9,2.5c0.1,0.3,0.2,0.7,0.2,1.1c0.6,8.9,2.9,17.6,6.9,25.6c0.7,1.3,0.5,3-0.5,4.1c-0.1,0.2-0.3,0.3-0.5,0.5
			l-10.3,8.6c-1.5,1.3-1.8,3.4-0.7,5.1l0.2,0.3l8.9,13.4C1185.1,1424.8,1187.3,1425.3,1189,1424.3z M1272.8,1336.4
			c1.9,1.9,3.6,4.1,5.2,6.5c3.1,4.6,5.3,13,5,18.6c0,0.6-0.1,1.2-0.1,1.8c-3.7,35.6-47.2,46.8-67.5,16.8c-2.7-3.9-4.7-10.4-5.1-15.9
			c-0.1-1.3-0.1-2.5,0-3.5c0.4-5,1.5-9.6,3.3-13.7C1223.7,1323.7,1254.1,1317.3,1272.8,1336.4z"/>
	</g>
	<g>
		<path class="st7" d="M1341.8,1304.1l9.6-3.3c0.8-0.3,1.7-0.1,2.3,0.5c0.8,0.8,1.6,1.5,2.4,2.2c1.6,1.3,3.2,2.5,4.8,3.5
			c0.8,0.5,1.2,1.4,1.1,2.3l-1.7,10.4c-0.2,1.1,0.5,2.2,1.6,2.5l9.4,2.3c1.1,0.3,2.1-0.3,2.5-1.3l3.4-9.1c0.3-0.9,1.2-1.5,2.2-1.4
			c4.1,0.2,8.2-0.3,12.2-1.4c1-0.3,2,0.2,2.5,1l2.9,5.1c0.6,1,1.8,1.4,2.8,0.9l8.8-3.9c0.2-0.1,0.3-0.2,0.5-0.3
			c0.7-0.6,1-1.5,0.7-2.4l-2.4-7.2l-0.6-1.7c1.3-1.2,2.6-2.5,3.8-3.9c1.6-1.9,3-3.9,4.2-6c0.4-0.8,1.3-1.2,2.2-1.1l8.4,1.3
			c1.2,0.2,2.2-0.5,2.5-1.7l1.8-7.2l0.5-2.1c0.3-1.1-0.3-2.3-1.4-2.7l-7.6-2.8c-0.9-0.3-1.5-1.2-1.4-2.1c0-2.8-0.2-5.5-0.7-8.3
			c0-0.2-0.1-0.5-0.1-0.7c0-0.1,0-0.2,0-0.2c-0.1-0.9,0.3-1.7,1.1-2.2l8.3-4.8c0.1,0,0.2-0.1,0.3-0.2c0.8-0.6,1.1-1.7,0.7-2.6
			l-3.8-8.8c-0.5-1.1-1.7-1.6-2.8-1.2l-10,3.4c-0.8,0.3-1.8,0-2.4-0.6c-1.3-1.5-2.7-2.9-4.3-4.2c-0.8-0.7-1.7-1.4-2.5-2
			c-0.7-0.5-1.1-1.4-0.9-2.2l1.6-10c0.2-1.1-0.5-2.2-1.6-2.4l-9.3-2.3c-1.1-0.3-2.3,0.3-2.7,1.4l-2.7,7.2c-0.4,1-1.3,1.6-2.3,1.5
			c-4-0.5-8-0.3-12,0.5c-0.9,0.2-1.9-0.2-2.4-1.1l-4.3-7.5c-0.6-1-1.8-1.4-2.9-1l-8.7,3.8c-1,0.5-1.6,1.7-1.2,2.7l0.1,0.4l2.8,8.3
			c0.3,0.9,0,1.9-0.7,2.5l0,0c-1.7,1.4-3.4,3-4.9,4.8c-0.8,1-1.5,1.9-2.2,2.9c-0.5,0.7-1.3,1.1-2.2,0.9l-8.5-1.4
			c-1.2-0.2-2.3,0.6-2.6,1.7l-2.3,9.2c-0.1,0.3-0.1,0.5-0.1,0.8c0.1,0.8,0.6,1.5,1.4,1.8l6.1,2.2c0.7,0.3,1.3,0.9,1.4,1.7
			c0,0.2,0,0.4,0,0.6c-0.6,5.1-0.1,10.3,1.3,15.3c0.3,0.8,0,1.7-0.7,2.3c-0.1,0.1-0.2,0.2-0.3,0.2l-6.7,3.9c-1,0.6-1.4,1.8-0.9,2.8
			l0.1,0.2l3.7,8.5C1339.5,1303.9,1340.7,1304.5,1341.8,1304.1z M1398.5,1262.5c0.9,1.3,1.7,2.7,2.3,4.2c1.3,3,1.7,8,0.9,11.1
			c-0.1,0.3-0.2,0.7-0.3,1c-5.7,19.9-31.6,21.9-40.2,2.7c-1.1-2.5-1.6-6.4-1.3-9.6c0.1-0.7,0.2-1.4,0.3-2c0.7-2.8,1.8-5.3,3.3-7.5
			C1371.7,1250.3,1389.7,1249.7,1398.5,1262.5z"/>
	</g>
	<g>
		<path class="st10" d="M1369.9,1559.3l24.8-12.1c2.1-1,4.5-0.7,6.3,0.7c2.3,1.8,4.7,3.5,7.2,5.1c4.6,3,9.4,5.6,14.3,7.8
			c2.3,1,3.7,3.3,3.6,5.8l-1,28.8c-0.1,3.1,2.2,5.7,5.3,6.1l26.2,3.1c3,0.3,5.7-1.6,6.4-4.5l6-25.9c0.5-2.5,2.7-4.4,5.4-4.6
			c11.2-0.9,22.2-3.6,32.6-8c2.5-1.1,5.5-0.2,7.1,1.9l9.7,12.9c1.9,2.4,5.3,3.1,7.9,1.6l22.4-13.4c0.5-0.3,0.9-0.6,1.2-1
			c1.7-1.7,2.2-4.5,1.1-6.8l-9-18.5l-2.2-4.5c3.2-3.7,6.2-7.7,9-11.9c3.7-5.7,6.8-11.6,9.2-17.6c1-2.3,3.2-3.8,5.7-3.7l23.2,0.8
			c3.2,0.1,5.9-2.2,6.3-5.4l2.4-20l0.7-5.7c0.4-3.1-1.7-6.1-4.7-6.8l-21.6-5c-2.5-0.6-4.4-2.6-4.6-5.2c-0.8-7.5-2.4-15-4.8-22.1
			c-0.2-0.6-0.4-1.2-0.6-1.8c-0.1-0.2-0.1-0.4-0.2-0.6c-0.6-2.4,0.3-4.8,2.3-6.3l20.9-15.8c0.2-0.2,0.5-0.4,0.7-0.6
			c1.9-1.9,2.3-5,0.9-7.3l-13.4-22.4c-1.6-2.7-5-3.7-7.9-2.4l-25.9,12.6c-2.2,1.1-4.8,0.7-6.6-0.9c-4-3.6-8.3-6.9-13-9.9
			c-2.5-1.6-5-3.1-7.5-4.5c-2.1-1.1-3.3-3.3-3.2-5.7l0.9-27.7c0.1-3-2.1-5.7-5.2-6.1l-25.9-3.1c-3.1-0.4-6,1.6-6.8,4.7l-4.8,20.5
			c-0.6,2.7-3,4.7-5.8,4.7c-11,0.1-21.9,1.9-32.3,5.3c-2.5,0.8-5.2,0-6.8-2.1l-14.2-18.9c-1.9-2.5-5.4-3.2-8.1-1.6l-22.3,13.3
			c-2.7,1.6-3.7,5-2.3,7.8l0.5,1.1l10.4,21.5c1.1,2.3,0.7,5-1.1,6.9l0,0c-4.2,4.5-8.1,9.4-11.6,14.7c-1.9,2.9-3.5,5.8-5.1,8.7
			c-1.1,2.1-3.2,3.3-5.5,3.3l-23.6-0.8c-3.2-0.1-6,2.3-6.4,5.4l-3.1,25.8c-0.1,0.7,0,1.5,0.1,2.1c0.5,2.2,2.3,4,4.5,4.5l17.3,4
			c2.1,0.5,3.8,2.1,4.4,4.1c0.2,0.5,0.3,1.1,0.3,1.7c0.2,14.1,3.2,28,8.8,40.9c1,2.2,0.5,4.7-1.1,6.5c-0.2,0.2-0.5,0.5-0.8,0.7
			l-17,12.8c-2.5,1.8-3.1,5.3-1.6,7.9l0.3,0.5l13,21.8C1363.6,1559.6,1367,1560.7,1369.9,1559.3z M1509.2,1427.4
			c2.8,3.2,5.4,6.7,7.7,10.7c4.5,7.6,7.3,21,6.3,29.7c-0.1,0.9-0.2,1.9-0.4,2.8c-8.7,55.9-78.2,70-107.9,20.9
			c-3.9-6.4-6.5-16.8-6.8-25.4c0-2,0-3.9,0.3-5.6c1-7.9,3.2-15.1,6.3-21.3C1432.7,1403.3,1481.2,1395.8,1509.2,1427.4z"/>
	</g>
</g>
<path class="st11" d="M1023.8,689c0,0-22.4-0.5-23.2,21.4h47.1c0,0,4.9-16.3,19.4-10.7V689L1023.8,689z"/>
<path class="st12" d="M1023.8,689c0,0,39.9,3.8,41.4,38c1.5,34.2,0,102.5,0,102.5l30.4-11.4l24.3,11.4v-104c0,0-2.3-31.1-34.9-36.4
	H1023.8z"/>
<g>
	<path class="st13" d="M1623.4,710.4h-83.8c-5.8-4.1-16.7-13-27.1-28.2c-2-2.9-4-6.1-5.9-9.5
		C1495.8,653.7,1595.3,697.7,1623.4,710.4z"/>
	<g>
		<path class="st14" d="M1571.8,896.9c2.2,2.6,2.5,5.5,1.4,8.6c0,0,0,0,0,0c-2.1,5.7-9,12.1-17,18.4c-1,0.8-1.9,1.6-2.7,2.2
			c-0.2,0.2-0.4,0.4-0.6,0.5c-0.2,0.1-0.3,0.3-0.5,0.4c-7.5,6.8-4.7,8.4-18.1,22.2c-15.3,15.7-25.8,15.9-28.7,14.5
			c-2.5-1.2,2.7-9.6,8.4-19c0.3-0.5,0.5-0.9,0.8-1.4c0.8-1.2,1.5-2.5,2.3-3.8c6.7-11.3,5.1-16.6,3.6-33.5
			c-1.2-13.7-20.8-76.8-20.8-76.8l29.2-4.8c0,0,8.4,50.2,18,58c5.1,4.1,10.9,4.2,15.9,7.3c0.3,0.2,0.7,0.4,1,0.7
			C1566.6,892.4,1569.5,894.3,1571.8,896.9z"/>
		<path class="st13" d="M1571.8,896.9c2.2,2.6,2.5,5.5,1.4,8.6c0,0,0,0,0,0c-2.6,5.7-9.3,12-17,18.3c-1,0.8-1.9,1.6-2.7,2.3
			c-0.2,0.2-0.4,0.4-0.6,0.5c-0.2,0.1-0.3,0.3-0.5,0.4c-7.5,6.8-4.7,8.4-18.1,22.2c-15.3,15.7-25.8,15.9-28.7,14.5
			c-2.5-1.2,2.7-9.6,8.4-19c3-1.1,16.7-6.5,27.2-19.8c9.2-11.6,15.4-26.6,21.7-35.2c0.3,0.2,0.7,0.4,1,0.7
			C1566.6,892.4,1569.5,894.3,1571.8,896.9z"/>
		<path class="st14" d="M1337,877.1c-1.9,9-14.7,7.4-29,3.8c-14.3-3.6-10.9,0.6-31.3-1.8c-20.4-2.4-26.5-10-27.1-13.1
			c-0.5-2.7,9.5-3.6,20.3-4.7c1.4-0.1,2.7-0.3,4.1-0.5c12.2-1.4,21.2-9.2,32.3-15.6c10.5-6,26.4-30.9,26.4-30.9l27.9,2.4
			c0,0-14.8,22.2-20.6,31.8c-3.4,5.7-3.3,13.2-2.9,19C1337.5,870.7,1337.7,873.9,1337,877.1z"/>
		<path class="st13" d="M1308.1,880.9c-14.3-3.6-10.9,0.6-31.3-1.8c-20.4-2.4-26.5-10-27.1-13.1c-0.5-2.7,9.5-3.6,20.3-4.7l0.1,0.2
			c0,0,12.2,8.8,29.1,9.3c13.8,0.4,28.5-3.4,38-3.2c0.2,3.2,0.4,6.4-0.3,9.6C1335.2,886.1,1322.4,884.5,1308.1,880.9z"/>
		<path class="st13" d="M1540.2,851.7c0,0-1.9,1.3-4.9,2.9c-3.5,1.9-8.3,4.3-12.7,5.5c-4.8,1.3-9.6,1.7-13.1,1.7c-3,0-5-0.2-5-0.2
			l-33.5-92l-6-16.6l-6.4-17.7l-2.2-6.2l-10.9-30c0,0,26.6-68.3,53.8-35.7c3.3,4,6.4,9.7,9.3,16.8c2,4.8,3.9,10.3,5.7,16.2
			c1.3,4.4,2.6,9.1,3.9,14c3.4,13.3,6.4,27.9,9,42.6C1535.8,802.1,1540.2,851.7,1540.2,851.7z"/>
		<path class="st15" d="M1718.9,702.3c-1.5,3.8-4.2,6.5-7.7,8.1h-123.5c-29.7-6.1-58.1-19.7-75.2-28.2c-1.4-0.7-2.7-1.4-4-2
			c-5.8-2.9-9.8-4.9-11.5-5.2c-10.3-2.2-15.6,14.7-24.4,35.4c-1.8,4.2-3.7,8.6-5.8,13c-1.5,3.1-4.4,7.2-8.3,11.9
			c-0.7,0.9-1.5,1.8-2.2,2.7c-30,35.1-107.3,100.4-107.3,100.4s-0.9,0-2.4,0c-4.7-0.1-15.3-0.5-20.3-2.5c-2.9-1.1-5.1-2.4-6.6-3.4
			c-2.2-1.6-3.1-2.8-3.1-2.8s92.5-180.9,140.4-230.1v0c0.7-0.7,1.4-1.4,2.1-2c5.2-5.1,9.9-8.5,13.7-9.7
			c16.3-5.1,121.9,0.6,121.9,0.6l3.4-5.5l5.6-0.4l1-0.1l4.7-0.3h0l6.5-0.5l9.6-0.7l26.1-1.9l4.2-0.3l48.2-3.4c0,0,2.2,5,5.2,13.2
			c1.2,3.2,2.4,6.9,3.7,11C1721.5,626.4,1731.5,670.4,1718.9,702.3z"/>
		<path class="st13" d="M1750.9,395.5c-24.1-20.6-41.3-25.7-43.7-58.2c-1.3-17.7-25-76.2-65.2-71.1c-3.4,0.4-6.7,0.7-10.1,0.6
			c-4.7-0.2-12.4,0.4-20.4,5.1c-19.3,11.3-54.9,116-30.9,152.8c4.3,6.6,10.5,11,19.1,12.3c1,0.6,2,1.1,3.1,1.7h0
			c4.3,2.4,9.1,5.1,14.1,7.9c28.4,16,65.5,37.2,84.6,47.8h0c1.2,0.6,2.2,1.3,3.2,1.8c2.2,1.2,4.1,2.3,5.5,3.1
			c2.2,1.2,3.5,1.9,3.6,1.9c0,0,4.9,1.9,11.8,3.3c9.6,2,23,3.1,32.3-3c3.7-2.4,7.2-5.4,10.2-8.9
			C1787.4,471.2,1792.5,431.1,1750.9,395.5z"/>
		<path class="st14" d="M1631.4,419.5c-0.2,0.1,18.5,6.6,31.1,1.2c11.8-5.1,20.9-24.4,20.7-24.4c-5.4-0.3-11.2-5-15.5-35.8l-2.3,0.8
			l-38.5,13.5c0,0,2.7,12.3,4.4,24.1C1632.7,408.7,1633.5,418.2,1631.4,419.5z"/>
		<path class="st16" d="M1626.9,374.8c0,0,1.6,8.6,3.9,21c22.1-3.8,31.4-22.6,34.5-34.5L1626.9,374.8z"/>
		<path class="st14" d="M1621.1,387c0,0,52.5-6.7,47.9-39.3c-4.7-32.6-1-55.5-34.8-52.6c-33.7,2.9-38.5,16.3-39.6,27.5
			C1593.6,333.9,1607.3,387.9,1621.1,387z"/>
		<path class="st13" d="M1596.7,304.7c0,0,33.4,29.2,56.2,31.7c22.8,2.5,31.5-4.8,31.5-4.8s-13.4-11.3-21.4-29.4
			c-2.4-5.3-7.4-9-13.2-9.6C1633.6,291.2,1602.7,290.3,1596.7,304.7z"/>
		<path class="st13" d="M1617.7,302.3c0,0-11.3,10.8-14.9,18.8c-3.5,7.8-4.6,26.3-2,33.8c0,0-17.3-34.2-7.2-50.6
			C1604.2,286.8,1617.7,302.3,1617.7,302.3z"/>
		<path class="st12" d="M1586.6,496.5c0.8,106.2-0.2,84,11.4,94.2c2.8,2.4,10.6,3.9,21,4.7c32.6,2.4,89.9-2.6,92.1-8.6
			c7.7-20.8,2.4-27.3,8.9-59.1c0.7-3.4,1.5-7.1,2.5-11c5.4-21.9,10.5-29.3-7.8-64.6c-16.6-32-33.9-58-35.5-57.1
			c-44.5,26-48,3.9-48,3.9S1586.2,444.7,1586.6,496.5z"/>
		<path class="st15" d="M1540.2,851.7c0,0-1.9,1.3-4.9,2.9c-3.5,1.9-8.3,4.3-12.7,5.5c-4.8,1.3-9.6,1.7-13.1,1.7c-3,0-5-0.2-5-0.2
			l-33.5-92l9.8-16.6l25.1-42.6l8.2-14c1.3,4.4,2.6,9.1,3.9,14c3.4,13.3,6.4,27.9,9,42.6C1535.8,802.1,1540.2,851.7,1540.2,851.7z"
			/>
		<path class="st12" d="M1631.3,398.9c0,0-45.7,7.4-51.2,27c-5.5,19.6-37.9,134.9-37.9,134.9s23.2,4.3,34-6.3
			c10.8-10.6,38-99.2,38-99.2L1631.3,398.9z"/>
		<path class="st17" d="M1619,595.4c32.6,2.4,89.9-2.6,92.1-8.6c7.7-20.8,2.4-27.3,8.9-59.1l-15.4-44.4c0,0,2.3,49.3-12.4,62.1
			c-14.6,12.9-59.7,24.6-66.8,35.4C1622,586.1,1619.7,591.3,1619,595.4z"/>
		<path class="st14" d="M1656.5,575c0,0-32.1-7.4-37.3-4.6c-5.2,2.8-18,13.1-19.6,16.7c-1.6,3.6,11.6-2.7,15.8-3.8
			c2.8-0.7,10,1.9,13.6,3.1c15.1,5.2,24.4,2.6,24.4,2.6L1656.5,575z"/>
		<path class="st12" d="M1679.3,395c0,0,43.1,3,57.9,23.9c20.8,29.5,61.6,154.8,37.6,171.3c-27.1,18.6-122.6,4-122.6,4
			s-3.1-14.9,1.4-22.1c4.5-7.2,76.5-18.3,79.8-21.6c3.3-3.3-41-65-41-75C1692.6,465.6,1679.3,395,1679.3,395z"/>
		<path class="st14" d="M1617.6,579.3c0,0-6.8,8.6-9,9.7c-2.2,1-3.6,0.8-3.6,0.8l4.6-8.1L1617.6,579.3z"/>
		<path class="st14" d="M1619.2,570.4l-19.6,9.4c0,0,0.8,1.4,3.2,1.3c2.4-0.1,8.5-2.3,8.5-2.3L1619.2,570.4z"/>
	</g>
	<g>
		<g>
			<polygon class="st18" points="1612.8,598.2 1457.9,597.1 1412.2,480.9 1566.8,482 			"/>
			<polygon class="st19" points="1456.1,592.6 1660.6,594 1660.6,598.5 1457.9,597.1 			"/>
		</g>
		<path class="st20" d="M1497.4,539.4c-1.1-4.1,1.2-7.4,5.3-7.3s8.3,3.4,9.4,7.4c1.1,4.1-1.2,7.4-5.3,7.3
			C1502.8,546.8,1498.6,543.5,1497.4,539.4z"/>
	</g>
</g>
<g>
	<g>
		<path class="st15" d="M787,1833.8h625.6c43.5,0,78.8-35.3,78.8-78.8v-3.3c0-43.5-35.3-78.8-78.8-78.8H787
			c-43.5,0-78.8,35.3-78.8,78.8v3.3C708.2,1798.6,743.4,1833.8,787,1833.8z"/>
		<path class="st7" d="M1141.5,1732l-0.6,35.2c-0.5,31.1,24.3,56.7,55.4,57.2l415.8,6.6l0.1-7c-23.3-12.1-39.1-36.7-38.6-64.8
			l0.2-12.4c0.4-28.1,17-52.1,40.7-63.5l0-0.1l-415.8-6.6C1167.6,1676.1,1142,1700.9,1141.5,1732z"/>
		<g>
			<path class="st21" d="M1623.1,1833.8H1185c-28.3,0-50.4-35.4-50.4-80.5s22.1-80.5,50.4-80.5h438.1c3.6,0,6.6,2.9,6.6,6.6
				c0,3.6-2.9,6.6-6.6,6.6H1185c-20.2,0-37.2,30.8-37.2,67.3c0,36.5,17,67.3,37.2,67.3h438.1c3.6,0,6.6,2.9,6.6,6.6
				S1626.7,1833.8,1623.1,1833.8z"/>
		</g>
		<g>
			<rect x="1265" y="1715.8" class="st22" width="316.3" height="1"/>
		</g>
		<g>
			<rect x="1432.9" y="1730.4" class="st22" width="143" height="1"/>
		</g>
		<g>
			<rect x="1326.4" y="1780.4" class="st22" width="249.5" height="1"/>
		</g>
	</g>
	<path class="st23" d="M1346.8,1716.2c0,0,13.3,5.6,14.9,24.3s0,28.7,0,28.7l-16-7.6l-16.2,7.6V1740c0,0-0.6-23.7-22.7-23.7H1346.8z
		"/>
</g>
<g id="girl_2_3_">
	<path class="st13" d="M905.1,1085.4c0,0,32.6-10.8,57.6,19.4c25.1,30.1,61.8,70.9,52.2,82.4c-9.5,11.5-11.4,21,2.2,28.4
		c13.7,7.4,20.9,17.2,0.8,48c-13.1,20.1-15.9-6.6-55.8-5.3c-39.9,1.3-70.4-18.8-83.7-7.7C828.2,1292.2,835.5,1084.3,905.1,1085.4z"
		/>
	<path class="st24" d="M892.7,1239.3c0,0-91.6,43.3-109.2,42.6c-17.6-0.8-131.3-37.8-131.3-37.8l2.8,18.7c0,0,83.8,48.2,113.1,50.9
		c28.9,2.7,127.5-25.9,137-31.9C914.5,1275.6,920.3,1245.4,892.7,1239.3z"/>
	<path class="st14" d="M881.3,1281.7c8.5,5.9,19.2,10.8,32.6,13.9c50.3,11.6,69.6-30.9,76.9-60.1c-6.9-3.9-13.3-4.8-17-5.2
		c-3.6-0.4-7.5-0.7-10.6-0.9c-5.7-4.3-14.1-22-15.9-49.5l-2.4,0.6l-39.7,10.9c0,0,1.8,12.6,2.7,24.5c0.7,9.3,0.8,18.2-1,20.4
		c-3.1,0.7-5,1.1-5,1.1s0,0,0,0C901.3,1238.3,889.8,1257.2,881.3,1281.7z"/>
	<path class="st24" d="M905.1,1191.4c0,0,1.8,12.6,2.7,24.5c22.5-2.3,32.9-23.6,37-35.4L905.1,1191.4z"/>
	<path class="st14" d="M898.4,1203.2c0,0,53.3-2.9,51-36.1c-2.3-33.2,3-55.9-31.2-55.4s-39.9,13.6-41.8,24.9
		C874.5,1147.8,884.5,1203.1,898.4,1203.2z"/>
	<path class="st13" d="M876.7,1117.9c7.5-10.6,13.9-8.8,17.6-6.1c28-18.1,48.4,4.2,48.4,4.2c5.3,23.6,23.4,36,23.4,36
		s-9.3,6.7-32.1,2.5c-7-1.3-13.4-5.7-19-11.2c10.1,14.5,23.3,24.6,23.3,24.6c-27.6-10.4-41-46.9-42.4-50.7c-3,3.2-9,10-10.5,16.3
		c-2,8.6-10.9,22.1-16,21.9C869.4,1155.5,865.4,1133.8,876.7,1117.9z"/>
	<path class="st7" d="M877.1,1279.2c-2.9,25.7,1.4,37,28.1,96.4c22.5,50.2-3,95.3-3,95.3s54.8,44.1,94.1,61.1
		c21.9,9.5,39,10.6,39.2-8.8c0.3-21.9-10-49.6-18.7-75.4c-7.5-22.2-13.7-43.1-10.8-57.7c4.8-24.6,20.5-123,4.8-154.6
		c-5.6-11.4-27.8-12.4-52-11.4c-7.6,4.9-36.3,23.3-48.2,21c-0.1,0-0.4-0.1-0.7-0.1c-5.6-1.4-5.6-4.7-3-8.7c0,0-10.9,0.1-25.6,4.1
		c-16.7,4.6-32.5,16.9-32.5,16.9S860.2,1272,877.1,1279.2z"/>
	<path class="st21" d="M895.5,1586.8c-7.2-0.8-13.7-4.8-17.7-10.8c-0.6-1-1.3-2-2-3.1c-15.1-22.9-21-92.8-54.9-167.4
		c-8.3-18.2-38-21.4-46.1-41.9c0,0-19.9-66.5,38.1-68.5c58.1-2,155.5,185,157,204.7C971.4,1518.8,1008.3,1599.6,895.5,1586.8z"/>
	<path class="st13" d="M664.7,1585.3h82.6c0,0,3.1-13.2-2.3-22.1c-4.8-7.9-3-12.5,0.6-19c-3.7,1.5-8.6,2.9-13.9,2.6
		c-4.1-0.2-8.5-2.1-12.3-4.3c-3.6,4.1-18.8,21.3-23.5,24.7C690.5,1571,666.4,1569.7,664.7,1585.3z"/>
	<path class="st21" d="M772.9,1314.4c-5,37.3-24.4,155-58.7,212.5c-11.1,18.5,27.8,28.9,28.1,28.8c5.2-1.4,13.9-9.7,17.9-13.3
		c27.8-25.1,84.3-96.1,84.3-153c0-27.8,0.5-80.8-19.7-94.3C812.3,1286.8,774.8,1299.6,772.9,1314.4z"/>
	<path class="st15" d="M829.4,1364c8.1,20.5,30.8,18,39.1,36.2c0.4,0.8,0.7,1.5,1,2.3c4.2,9.4,8.3,18.8,12,28.1
		c7.9,19.4,19.7,60.1,28.5,93.1c6,22.4,10.7,41.2,11.8,47.4c1.8,9.5,4.9,16.9,4.9,16.9c126.6,19.5,110.6-67.7,103.7-88.1
		c-6.3-18.6-116.7-210.9-174.7-208.9C797.8,1292.9,829.4,1364,829.4,1364z"/>
	<path class="st25" d="M725.4,1585.3H808c0,0,3.1-13.2-2.3-22.1c-4.8-7.9-3-12.5,0.6-19c-3.7,1.5-8.6,2.9-13.9,2.6
		c-4.1-0.2-8.5-2.1-12.3-4.3c-3.6,4.1-18.8,21.3-23.5,24.7C751.1,1571,727.1,1569.7,725.4,1585.3z"/>
	<path class="st25" d="M869.5,1402.5c4.2,9.4,8.3,18.8,12,28.1c7.9,19.4,19.7,60.1,28.5,93.1c0.1,0.1,0.1,0.3,0.2,0.4
		c32.9-51.3-14.5-148.5-14.5-148.5C884.5,1380.7,875.8,1390.4,869.5,1402.5z"/>
	<path class="st15" d="M821.1,1311.7c-5,37.3-12,157.7-46.3,215.1c-11.1,18.5,27.8,28.9,28.1,28.8c5.2-1.4,13.9-9.7,17.9-13.3
		c27.8-25.1,84.3-96.1,84.3-153c0-27.8-32.6-78.6-52.8-92C839.9,1289.1,823.1,1296.9,821.1,1311.7z"/>
	<g>
		<g>
			<polygon class="st26" points="637.5,1200 654.6,1169.1 668,1206.6 748.5,1279.9 669.8,1296 			"/>
			<polygon class="st27" points="732.8,1220.6 764.2,1316.5 669.8,1296 637.5,1200 			"/>
			<polygon class="st28" points="729.2,1218.3 641.3,1198.6 637.5,1200 728.6,1219.7 			"/>
			<polygon class="st29" points="729.2,1218.3 730.2,1220 728.6,1219.7 			"/>
		</g>
		<polygon class="st30" points="637.5,1200 656,1170.6 668.1,1204.6 641.3,1198.6 		"/>
	</g>
	<path class="st14" d="M704.7,1237.3c3-0.6,9.4-3,15.8-4.8c-1.9-1.5-4.1-3.3-4.7-5.2c-1.2-3.6-1.9-4.8,1.9-3.7
		c3.8,1.2,17.3,7.3,17.3,7.3s0,0,0,0c7.6,2.2,14.7,13,14.7,13s94.7,33.3,106.1,33.9c17.6,0.9,134.9-42.3,134.9-42.3
		c27.7,6.1,21.5,40.1,11.9,46.2c-9.5,6-93.9,36.7-143.9,37.3c-25.3,0.3-117.5-58.9-117.5-58.9s-10.8-4.9-19.2-3.4
		c-8.5,1.5-28.1,0-32.3-6.9C685.5,1242.8,699.7,1238.2,704.7,1237.3z"/>
	<path class="st7" d="M930.3,1256.8c0,0,10.5,33.2,46.5,40.8c0,0,59.5-18.3,29.9-58.9C1006.7,1238.7,977.4,1217,930.3,1256.8z"/>
	<path class="st14" d="M643.3,1239.8L643.3,1239.8c0-0.9,0.1-1.8,0.3-2.7c0,0,8.5-13.4,11.3-14c8.5-1.7,8.5,9.5,6.7,16.7
		c-1.3,5-3.1,12.3-5.7,14.9l3.6,10.7C642.2,1258.2,643.3,1239.8,643.3,1239.8z"/>
	<path class="st15" d="M996.2,1532c21.9,9.5,39,10.6,39.2-8.8c0.3-21.9-10-49.6-18.7-75.4c0,0-11.9,8.2-37.5-10.6
		C959.1,1422.4,984.5,1499,996.2,1532z"/>
</g>
<g>
	<path class="st31" d="M514,1792.4c0,1.7,0.1,3.5,0.3,5.1c0.6,5.4,2.3,10.4,4.8,15c1.9,3.6,4.4,6.8,7.2,9.6
		c7.6,7.6,18.1,12.3,29.7,12.3h591.3c23.2,0,42.1-18.8,42.1-42c0-11.6-4.7-22.1-12.3-29.7c-7.6-7.6-18.1-12.3-29.7-12.3H556
		C532.8,1750.3,514,1769.1,514,1792.4z"/>
	<path class="st32" d="M559.1,1742.7h202.7c3.5,0,6.5-2.9,6.5-6.5l0,0c0-3.5-2.9-6.5-6.5-6.5H559.1c-3.5,0-6.5,2.9-6.5,6.5l0,0
		C552.6,1739.8,555.5,1742.7,559.1,1742.7z"/>
	
		<rect x="570.3" y="1742.7" transform="matrix(-1 -1.224647e-16 1.224647e-16 -1 1162.5205 3493.0342)" class="st33" width="22" height="7.6"/>
	<path class="st34" d="M519.1,1812.5c1.9,3.6,4.4,6.8,7.2,9.6c7.6,7.6,18.1,12.3,29.7,12.3h125.2v-21.9H519.1z"/>
	<path class="st35" d="M1267.6,1780v24.6c0,2.7-0.4,5.3-1,7.8c-3.4,12.6-15,21.9-28.7,21.9H622c-13.7,0-25.3-9.3-28.7-21.9
		c-0.7-2.5-1-5.1-1-7.8V1780c0-16.4,13.3-29.7,29.7-29.7h615.9C1254.3,1750.3,1267.6,1763.6,1267.6,1780z"/>
	<path class="st36" d="M1266.5,1812.5c-3.4,12.6-15,21.9-28.7,21.9H622c-13.7,0-25.3-9.3-28.7-21.9H1266.5z"/>
	<g>
		<path class="st1" d="M1206.4,1792.5c0,13.1,4.7,24.7,12.2,32.5c0.2,0.2,0.3,0.3,0.5,0.5c5.8,5.8,13.1,9.2,21.1,9.2
			c12.5,0,43.4-18.8,62.5-31.3c9.5-6.2,16.2-10.9,16.2-10.9s-6.6-4.7-16.2-10.9c-19.2-12.5-50.1-31.3-62.5-31.3
			c-3.6,0-7.1,0.7-10.4,2c-5.5,2.2-10.4,6.1-14.3,11.3c-4.3,5.6-7.3,12.7-8.6,20.6c0,0.1,0,0.2,0,0.3
			C1206.6,1787,1206.4,1789.7,1206.4,1792.5z"/>
		<path class="st37" d="M1206.4,1792.5c0,13.1,4.7,24.7,12.2,32.5l94.8-32.6l-106.4-7.9C1206.6,1787,1206.4,1789.7,1206.4,1792.5z"
			/>
		<path class="st38" d="M1215.6,1763.6l94.6,25.8l-80.3-37.1C1224.4,1754.5,1219.5,1758.4,1215.6,1763.6z"/>
		<path class="st39" d="M1296.6,1792.5c0,5,2.6,9.3,6.2,10.9c9.5-6.2,16.2-10.9,16.2-10.9s-6.6-4.7-16.2-10.9
			C1299.2,1783.2,1296.6,1787.5,1296.6,1792.5z"/>
	</g>
</g>
<g>
	<path class="st40" d="M1081.6,1062.3h-24.1v-19.4h70.6v19.4h-24.1v60.6h-22.3V1062.3z"/>
	<path class="st40" d="M1174,1124.3c-5.7,0-10.9-0.7-15.5-2.2s-8.5-3.7-11.7-6.7c-3.2-3-5.7-6.8-7.4-11.4c-1.7-4.6-2.6-10-2.6-16.3
		v-44.9h22.8v44.5c0,5.8,1.3,10.1,4,12.9c2.7,2.8,6.2,4.2,10.7,4.2c4.5,0,8.1-1.3,10.7-4c2.7-2.7,4-6.8,4-12.5v-45h22.8v44.3
		c0,6.5-0.9,12.1-2.7,16.7c-1.8,4.7-4.3,8.5-7.6,11.5c-3.3,3-7.2,5.2-11.8,6.7C1184.9,1123.6,1179.7,1124.3,1174,1124.3z"/>
	<path class="st40" d="M1244.6,1062.3h-24.1v-19.4h70.6v19.4h-24.1v60.6h-22.3V1062.3z"/>
	<path class="st40" d="M1341.3,1124.4c-6.2,0-12-1.1-17.2-3.3c-5.3-2.2-9.9-5.1-13.7-8.9c-3.8-3.7-6.8-8.1-9-13.1
		s-3.3-10.4-3.3-16.1v-0.2c0-5.7,1.1-11.1,3.3-16.2c2.2-5.1,5.2-9.5,9.1-13.3c3.9-3.8,8.5-6.7,13.8-8.9c5.3-2.2,11-3.3,17.2-3.3
		c6.2,0,12,1.1,17.2,3.3c5.3,2.2,9.8,5.1,13.7,8.9c3.8,3.7,6.8,8.1,9,13.1c2.2,5,3.3,10.4,3.3,16.1v0.2c0,5.7-1.1,11.1-3.3,16.2
		c-2.2,5.1-5.2,9.5-9.1,13.3c-3.9,3.8-8.5,6.7-13.8,8.9C1353.2,1123.4,1347.5,1124.4,1341.3,1124.4z M1341.5,1104.4
		c3.1,0,5.9-0.6,8.4-1.7c2.5-1.1,4.7-2.7,6.5-4.6c1.8-1.9,3.2-4.2,4.2-6.8c1-2.6,1.5-5.3,1.5-8.2v-0.2c0-2.9-0.5-5.6-1.5-8.2
		c-1-2.6-2.4-4.9-4.3-6.9c-1.8-2-4-3.6-6.6-4.7c-2.5-1.2-5.3-1.8-8.4-1.8c-3.1,0-5.9,0.6-8.4,1.7c-2.5,1.1-4.7,2.7-6.5,4.6
		s-3.2,4.2-4.1,6.8c-1,2.6-1.4,5.3-1.4,8.2v0.2c0,2.9,0.5,5.6,1.5,8.2c1,2.6,2.4,4.9,4.2,6.9c1.8,2,4,3.6,6.5,4.7
		C1335.6,1103.8,1338.4,1104.4,1341.5,1104.4z"/>
	<path class="st40" d="M1396.4,1042.8h38.1c6.2,0,11.5,0.8,15.8,2.3c4.3,1.5,7.8,3.7,10.5,6.4c4.8,4.6,7.1,10.8,7.1,18.6v0.2
		c0,6.2-1.5,11.3-4.5,15.3c-3,4-7,7.1-12.1,9.3l19.2,27.9h-25.8l-16.2-24.2h-0.2h-9.5v24.2h-22.3V1042.8z M1433.4,1081.2
		c3.8,0,6.8-0.9,8.9-2.6s3.1-4,3.1-6.9v-0.2c0-3.2-1.1-5.6-3.2-7.1c-2.1-1.6-5.1-2.3-8.9-2.3h-14.6v19.2H1433.4z"/>
	<path class="st40" d="M1479.5,1042.8h22.4v80h-22.4V1042.8z"/>
	<path class="st40" d="M1544.4,1042.3h21.5l34.3,80.6h-23.9l-5.9-14.3h-31l-5.7,14.3h-23.5L1544.4,1042.3z M1564,1091.4l-9-22.7
		l-9.1,22.7H1564z"/>
	<path class="st40" d="M1608,1042.8h22.3v60.6h39v19.4H1608V1042.8z"/>
</g>
<g>
	<path class="st14" d="M1956.7,1196.6c0,0-2.9-6.5-4.7-9.5s-9.8-12-11.2-10c-1.4,2-6.8,15.7-3.9,19.5c2.9,3.8-0.2,10.5,14.1,14.5
		L1956.7,1196.6z"/>
	<path class="st17" d="M2115.5,1155.8c0,0-73.1,61-101.6,55.4c-22.3-4.4-56.5-16.2-56.5-16.2l-6.8,17.5c0,0,30.7,41.6,62.7,41.9
		c50,0.4,87-21.7,87-21.7L2115.5,1155.8z"/>
	<path class="st41" d="M2243.7,1799.7c0,0-2.1,34.2-8.7,34.7c-0.9,0.1-33.6,0.1-33.6,0.1l-41.8-0.2c0,0,0.3-10.1,12.5-12.2
		c12.2-2.1,32.6-10.7,40-26.8C2219.9,1778.2,2243.7,1799.7,2243.7,1799.7z"/>
	<path class="st15" d="M2246.1,1802c0,0-12.7,4.2-22.6,4.2c-11.1,0-21.1-3-21.1-3s-2.4-23.1-15.5-74.1c-6.9-26.7-16.7-61-30.8-103.7
		c-38.7-117.9-50.5-186.9-51.6-193.4c-0.1-0.3-0.1-0.5-0.1-0.5l0.1-0.1l119.1-52.3c0,0-14.7,162.5,4.1,224.8
		c2.6,8.7,4.9,18.9,6.8,29.9C2246.4,1701.7,2246.1,1802,2246.1,1802z"/>
	<path class="st13" d="M2186.8,1729.2c-6.9-26.7-16.7-61-30.8-103.7c-38.7-117.9-50.5-186.9-51.6-193.4c0-0.2,0-0.4,0-0.6
		l119.1-52.3c0,0-14.7,162.5,4.1,224.8C2230.3,1612.8,2186.8,1729.2,2186.8,1729.2z"/>
	<path class="st41" d="M2150.7,1799.7c0,0-2.1,34.2-8.7,34.7c-0.9,0.1-33.6,0.1-33.6,0.1l-41.8-0.2c0,0,0.3-10.1,12.5-12.2
		c12.2-2.1,32.6-10.7,40-26.8C2126.8,1778.2,2150.7,1799.7,2150.7,1799.7z"/>
	<path class="st15" d="M2083.1,1383.1c0,0-1.5,105.3,16.7,234.6c18.2,129.3,12,184.2,12,184.2s12.5,4.1,17.6,4.5
		c12.9,1,26.1-3,26.1-3s26.1-129.3,18.6-194c-7.5-64.7,35.7-222,35.7-222L2083.1,1383.1z"/>
	<path class="st14" d="M2167.6,1136.7l-23.3,15.2l-21.2-6c-3.9-5.5-4.9-16.2-5-25.4c-0.1-9.2,0.8-16.9,0.8-16.9l31.4-13.8l11.7-5.2
		c0,0.2-0.9,9.6-1,11C2158.9,1120.1,2167.6,1136.7,2167.6,1136.7z"/>
	<path class="st42" d="M2082.6,1412.4c28.9,27.9,138.5,23.2,145.2-7.5c6.7-30.8-7.4-262.1-56.8-276.6c-10.3-3-65.1,14.7-65.1,14.7
		s-8.6,22.5-14.3,51.2c-1.1,5.6-4.3,64.7-6.7,120c-1.1,25.9-2.1,50.9-2.5,69.2C2082,1400.5,2082,1411.8,2082.6,1412.4z"/>
	<path class="st43" d="M2158.7,1096.1c-6.4,10.8-28.7,20.2-40.5,24.5c-0.1-9.2,0.8-16.9,0.8-16.9l31.4-13.8
		C2157.3,1089.7,2161.6,1091.3,2158.7,1096.1z"/>
	<path class="st14" d="M2107.2,1101.8c0,0,50.5,15.8,59.9-15.9c9.3-31.6,22.1-50.9-9.7-62.3c-31.9-11.4-41.7-1.2-47.4,8.6
		C2104.2,1042,2094.3,1096.8,2107.2,1101.8z"/>
	<path class="st44" d="M2111.9,1029.2c0,0,3.2,36.8,10.8,35.2s16-5,14.9,6.1c-1.1,11.1,7.4,30.1,18.4,30.1
		c23.5-0.1,49.1-60.5,42.7-72C2180.1,995.5,2085,988.8,2111.9,1029.2z"/>
	<path class="st17" d="M2119.4,1129c0.7-0.3,37.6-16.9,42-15.4s9.7,14.6,9.7,14.6l-65.1,14.7C2105.9,1143,2111,1132.5,2119.4,1129z"
		/>
	<g>
		<path class="st45" d="M1889.2,1308.2l207.3,195.1c4.1,3.8,9.2,5,11.4,2.7l7-7.4c2.2-2.3,0.7-7.4-3.4-11.2l-207.3-195.1
			c-4.1-3.8-9.2-5-11.4-2.7l-7,7.4C1883.6,1299.3,1885.1,1304.3,1889.2,1308.2z"/>
		<path class="st46" d="M2005.5,1417.7l91,85.6c4.1,3.8,9.2,5,11.4,2.7l7-7.4c2.2-2.3,0.7-7.4-3.4-11.2l-91-85.6L2005.5,1417.7z"/>
		<path class="st45" d="M1899.7,1075.7c-61.5-65.3-164.3-68.5-229.6-7c-0.9,0.8-1.7,1.6-2.6,2.5c-62.9,61.7-65.1,162.7-4.5,227.2
			c61.5,65.3,164.3,68.5,229.6,7c21.4-20.1,36.1-44.7,44.1-70.9C1953.2,1180.6,1941.1,1119.7,1899.7,1075.7z M1883.9,1296
			c-38,35.8-89.8,47.8-137.1,36.6c-27.5-6.5-53.5-20.9-74.4-43.1c-56.6-60.2-53.7-154.9,6.4-211.5c22.2-20.8,49-33.6,76.9-38.5
			c47.9-8.3,98.8,6.9,134.6,44.9C1947,1144.7,1944.1,1239.4,1883.9,1296z"/>
		<g class="st47">
			<path class="st48" d="M1672.4,1289.6c20.8,22.2,46.8,36.5,74.4,43.1c47.3,11.2,99.1-0.8,137.1-36.6
				c60.2-56.6,63.1-151.3,6.4-211.5c-35.8-38-86.8-53.2-134.6-44.9c-27.9,4.8-54.7,17.6-76.9,38.4
				C1618.7,1134.7,1615.8,1229.4,1672.4,1289.6z"/>
		</g>
	</g>
	<path class="st17" d="M2082.4,1383.3c114.2-81.4,104.7-190,104.7-190c-41.7,23.5-83.2,75.6-102.2,120.8
		C2083.9,1340,2082.9,1365,2082.4,1383.3z"/>
	<g>
		<path class="st14" d="M1969.7,1346.3c-8.1-1.9-13.5-7.9-14.6-9c0,0-3.4,0.2,0.6,7.6c0.3,0.6,1.1,2.2,1.6,3.3c0.2,0.5-0.1,1-0.6,1
			c-4.6,0.4-9.3-1.5-18.3,0.4c-1.2,0.3-1.6,3.2-1.5,4.5c0.1,2.1-0.1,4.5,2.4,7.8c1.4,1.9,5.5,4,14.4,7.6c3.4,1.4,13.2,0.3,22.3-2.8
			l7.3-3.4l-2.3-13.6l-1.8,0.4C1976.4,1350.6,1972.8,1347,1969.7,1346.3z"/>
		<path class="st42" d="M2151.7,1143c0,0,102.6,19.5-30.2,168.1c-21.2,23.8-136,54.7-136,54.7s-11.6-9.9-5.8-17.9
			c0,0,79-57.4,96.4-66.5c7.8-4.1,30.4-91.6,43.1-112.6C2132,1147.7,2151.7,1143,2151.7,1143z"/>
	</g>
	<path class="st14" d="M1953.9,1198.4c0,0-3.4-6.4-4-9.8c-0.7-3.4-4.9-13.3-6.6-15c-0.7-0.7-3,0.2-3.3,3.2c-0.1,1.3,0.5,3.7,1.6,6.5
		c1.8,4.6,1.5,10.8,2.2,12.9C1945.4,1201.3,1953.9,1198.4,1953.9,1198.4z"/>
</g>
<g>
	<g>
		<path class="st49" d="M668.1,1673h496.6c24.3,0,43.9-19.7,43.9-43.9l0,0c0-24.3-19.7-43.9-43.9-43.9H668.1
			c-24.3,0-43.9,19.7-43.9,43.9l0,0C624.2,1653.3,643.9,1673,668.1,1673z"/>
		<path class="st7" d="M947.6,1617.3l-0.4,19.2c-0.4,17,18.1,30.9,41.4,31.2l310.3,3.6l0.1-3.8c-17.4-6.6-29.2-20-28.8-35.3l0.1-6.7
			c0.3-15.3,12.7-28.4,30.4-34.6l0-0.1l-310.3-3.6C967.1,1586.8,948,1600.3,947.6,1617.3z"/>
		<g>
			<path class="st50" d="M1307,1672.8H980.1c-21.1,0-37.6-19.3-37.6-43.9s16.5-43.9,37.6-43.9H1307c2.7,0,4.9,1.6,4.9,3.6
				c0,2-2.2,3.6-4.9,3.6H980.1c-15.1,0-27.8,16.8-27.8,36.7s12.7,36.7,27.8,36.7H1307c2.7,0,4.9,1.6,4.9,3.6
				C1311.9,1671.2,1309.7,1672.8,1307,1672.8z"/>
		</g>
		<g>
			<rect x="1039.8" y="1608.4" class="st22" width="236.1" height="0.6"/>
		</g>
		<g>
			<rect x="1165.1" y="1616.4" class="st22" width="106.7" height="0.6"/>
		</g>
		<g>
			<rect x="1085.6" y="1643.6" class="st22" width="186.2" height="0.6"/>
		</g>
	</g>
</g>
<path class="st39" d="M2546.9,1846.1H198.7c-2.1,0-3.7-1.7-3.7-3.7v-4.7c0-2.1,1.7-3.7,3.7-3.7h2348.2c2.1,0,3.7,1.7,3.7,3.7v4.7
	C2550.6,1844.4,2548.9,1846.1,2546.9,1846.1z"/>
</svg>
